Alegreya Sans SC-Bold Italic.ufo
<glyph name="plus" format="1">
  <advance width="477"/>
  <unicode hex="002B"/>
  <outline>
    <contour>
      <point x="224" y="471" type="line"/>
      <point x="204" y="305" type="line"/>
      <point x="38" y="305" type="line"/>
      <point x="22" y="226" type="line"/>
      <point x="29" y="217" type="line"/>
      <point x="193" y="217" type="line"/>
      <point x="173" y="53" type="line"/>
      <point x="181" y="44" type="line"/>
      <point x="261" y="51" type="line"/>
      <point x="281" y="217" type="line"/>
      <point x="446" y="217" type="line"/>
      <point x="463" y="296" type="line"/>
      <point x="454" y="305" type="line"/>
      <point x="292" y="305" type="line"/>
      <point x="312" y="468" type="line"/>
      <point x="304" y="477" type="line"/>
    </contour>
  </outline>
</glyph>
<glyph name="comma" format="1">
  <advance width="229"/>
  <unicode hex="002C"/>
  <outline>
    <contour>
      <point x="86" y="120"/>
      <point x="55" y="106"/>
      <point x="26" y="89" type="curve"/>
      <point x="26" y="77" type="line"/>
      <point x="47" y="60"/>
      <point x="57" y="41"/>
      <point x="57" y="18" type="curve" smooth="yes"/>
      <point x="57" y="-17"/>
      <point x="39" y="-49"/>
      <point x="2" y="-79" type="curve"/>
      <point x="3" y="-89" type="line"/>
      <point x="45" y="-126" type="line"/>
      <point x="125" y="-69"/>
      <point x="164" y="-14"/>
      <point x="164" y="45" type="curve" smooth="yes"/>
      <point x="164" y="78"/>
      <point x="149" y="106"/>
      <point x="120" y="129" type="curve"/>
    </contour>
  </outline>
</glyph>
<glyph name="hyphen" format="1">
  <advance width="304"/>
  <unicode hex="002D"/>
  <outline>
    <contour>
      <point x="34" y="282" type="line"/>
      <point x="24" y="201" type="line"/>
      <point x="33" y="191" type="line"/>
      <point x="276" y="227" type="line"/>
      <point x="285" y="308" type="line"/>
      <point x="276" y="317" type="line"/>
    </contour>
  </outline>
</glyph>
<glyph name="zero" format="1">
  <advance width="525"/>
  <unicode hex="0030"/>
  <outline>
    <contour>
      <point x="135" y="513"/>
      <point x="39" y="385"/>
      <point x="39" y="212" type="curve" smooth="yes"/>
      <point x="39" y="63"/>
      <point x="109" y="-9"/>
      <point x="233" y="-9" type="curve" smooth="yes"/>
      <point x="397" y="-9"/>
      <point x="491" y="115"/>
      <point x="491" y="291" type="curve" smooth="yes"/>
      <point x="491" y="443"/>
      <point x="421" y="513"/>
      <point x="299" y="513" type="curve" smooth="yes"/>
    </contour>
    <contour>
      <point x="355" y="393"/>
      <point x="387" y="354"/>
      <point x="387" y="268" type="curve" smooth="yes"/>
      <point x="387" y="166"/>
      <point x="341" y="105"/>
      <point x="247" y="105" type="curve" smooth="yes"/>
      <point x="170" y="105"/>
      <point x="141" y="145"/>
      <point x="141" y="229" type="curve" smooth="yes"/>
      <point x="141" y="330"/>
      <point x="184" y="393"/>
      <point x="280" y="393" type="curve" smooth="yes"/>
    </contour>
  </outline>
</glyph>
<glyph name="five" format="1">
  <advance width="431"/>
  <unicode hex="0035"/>
  <outline>
    <contour>
      <point x="317" y="505" type="line"/>
      <point x="172" y="505" type="line"/>
      <point x="114" y="508" type="line"/>
      <point x="97" y="493" type="line"/>
      <point x="62" y="209" type="line"/>
      <point x="69" y="199" type="line"/>
      <point x="170" y="181" type="line" smooth="yes"/>
      <point x="227" y="170"/>
      <point x="255" y="146"/>
      <point x="255" y="105" type="curve" smooth="yes"/>
      <point x="255" y="45"/>
      <point x="203" y="3"/>
      <point x="123" y="3" type="curve" smooth="yes"/>
      <point x="85" y="3"/>
      <point x="48" y="10"/>
      <point x="8" y="26" type="curve"/>
      <point x="-2" y="17" type="line"/>
      <point x="-7" y="-85" type="line"/>
      <point x="27" y="-92"/>
      <point x="70" y="-97"/>
      <point x="104" y="-97" type="curve" smooth="yes"/>
      <point x="261" y="-97"/>
      <point x="379" y="-1"/>
      <point x="379" y="126" type="curve" smooth="yes"/>
      <point x="379" y="205"/>
      <point x="330" y="254"/>
      <point x="231" y="275" type="curve" smooth="yes"/>
      <point x="171" y="288" type="line"/>
      <point x="186" y="402" type="line"/>
      <point x="303" y="402" type="line"/>
      <point x="392" y="393" type="line"/>
      <point x="402" y="402" type="line"/>
      <point x="427" y="502" type="line"/>
      <point x="420" y="511" type="line"/>
    </contour>
  </outline>
</glyph>
<glyph name="question" format="1">
  <advance width="340"/>
  <unicode hex="003F"/>
  <outline>
    <contour>
      <point x="119" y="661" type="line"/>
      <point x="87" y="593" type="line"/>
      <point x="95" y="581" type="line"/>
      <point x="217" y="573"/>
      <point x="266" y="545"/>
      <point x="266" y="498" type="curve" smooth="yes"/>
      <point x="266" y="462"/>
      <point x="242" y="434"/>
      <point x="200" y="414" type="curve" smooth="yes"/>
      <point x="104" y="366" type="line"/>
      <point x="97" y="356" type="line"/>
      <point x="92" y="232" type="line"/>
      <point x="100" y="223" type="line"/>
      <point x="193" y="235" type="line"/>
      <point x="197" y="320" type="line"/>
      <point x="199" y="325" type="line"/>
      <point x="277" y="369" type="line" smooth="yes"/>
      <point x="346" y="406"/>
      <point x="386" y="460"/>
      <point x="386" y="519" type="curve" smooth="yes"/>
      <point x="386" y="607"/>
      <point x="296" y="659"/>
      <point x="132" y="668" type="curve"/>
    </contour>
    <component base="period" xOffset="41"/>
  </outline>
</glyph>
<glyph name="at" format="1">
  <advance width="843"/>
  <unicode hex="0040"/>
  <outline>
    <contour>
      <point x="205" y="633"/>
      <point x="29" y="443"/>
      <point x="29" y="185" type="curve" smooth="yes"/>
      <point x="29" y="-64"/>
      <point x="203" y="-208"/>
      <point x="465" y="-210" type="curve"/>
      <point x="501" y="-149" type="line"/>
      <point x="496" y="-136" type="line"/>
      <point x="267" y="-136"/>
      <point x="115" y="-13"/>
      <point x="115" y="200" type="curve" smooth="yes"/>
      <point x="115" y="402"/>
      <point x="251" y="547"/>
      <point x="457" y="552" type="curve" smooth="yes"/>
      <point x="628" y="557"/>
      <point x="736" y="458"/>
      <point x="736" y="307" type="curve" smooth="yes"/>
      <point x="736" y="176"/>
      <point x="660" y="89"/>
      <point x="534" y="85" type="curve"/>
      <point x="447" y="-2" type="line"/>
      <point x="687" y="3"/>
      <point x="821" y="113"/>
      <point x="821" y="311" type="curve" smooth="yes"/>
      <point x="821" y="509"/>
      <point x="683" y="633"/>
      <point x="472" y="633" type="curve" smooth="yes"/>
    </contour>
    <contour>
      <point x="501" y="431" type="line"/>
      <point x="496" y="348" type="line"/>
      <point x="447" y="-2" type="line"/>
      <point x="563" y="26" type="line"/>
      <point x="567" y="112" type="line"/>
      <point x="615" y="458" type="line"/>
      <point x="604" y="464" type="line"/>
    </contour>
    <contour>
      <point x="393" y="212" type="move"/>
    </contour>
    <contour>
      <point x="293" y="425"/>
      <point x="218" y="280"/>
      <point x="218" y="153" type="curve" smooth="yes"/>
      <point x="218" y="74"/>
      <point x="245" y="21"/>
      <point x="318" y="-7" type="curve"/>
      <point x="335" y="-7" type="line"/>
      <point x="381" y="40"/>
      <point x="422" y="98"/>
      <point x="457" y="159" type="curve"/>
      <point x="477" y="159" type="line"/>
      <point x="501" y="349" type="line"/>
      <point x="435" y="187"/>
      <point x="371" y="108"/>
      <point x="350" y="108" type="curve" smooth="yes"/>
      <point x="337" y="108"/>
      <point x="324" y="128"/>
      <point x="324" y="194" type="curve" smooth="yes"/>
      <point x="324" y="297"/>
      <point x="363" y="374"/>
      <point x="432" y="374" type="curve"/>
      <point x="530" y="342" type="line"/>
      <point x="585" y="428" type="line"/>
      <point x="458" y="462" type="line"/>
      <point x="452" y="462" type="line"/>
    </contour>
  </outline>
</glyph>
<glyph name="B" format="1">
  <advance width="565"/>
  <unicode hex="0042"/>
  <outline>
    <contour>
      <point x="130" y="643" type="line"/>
      <point x="188" y="547" type="line"/>
      <point x="234" y="549"/>
      <point x="267" y="549"/>
      <point x="297" y="549" type="curve" smooth="yes"/>
      <point x="373" y="549"/>
      <point x="400" y="529"/>
      <point x="400" y="480" type="curve" smooth="yes"/>
      <point x="400" y="418"/>
      <point x="370" y="383"/>
      <point x="312" y="368" type="curve"/>
      <point x="143" y="374" type="line"/>
      <point x="131" y="275" type="line"/>
      <point x="317" y="278" type="line"/>
      <point x="369" y="268"/>
      <point x="396" y="244"/>
      <point x="396" y="198" type="curve" smooth="yes"/>
      <point x="396" y="130"/>
      <point x="344" y="90"/>
      <point x="254" y="90" type="curve"/>
      <point x="227" y="90"/>
      <point x="173" y="95"/>
      <point x="140" y="100" type="curve"/>
      <point x="50" y="0" type="line"/>
      <point x="101" y="-3"/>
      <point x="187" y="-5"/>
      <point x="223" y="-5" type="curve" smooth="yes"/>
      <point x="434" y="-5"/>
      <point x="530" y="66"/>
      <point x="530" y="199" type="curve" smooth="yes"/>
      <point x="530" y="267"/>
      <point x="497" y="307"/>
      <point x="421" y="334" type="curve"/>
      <point x="496" y="366"/>
      <point x="536" y="427"/>
      <point x="536" y="503" type="curve" smooth="yes"/>
      <point x="536" y="597"/>
      <point x="462" y="644"/>
      <point x="345" y="644" type="curve" smooth="yes"/>
    </contour>
    <contour>
      <point x="129" y="643" type="line"/>
      <point x="80" y="192" type="line"/>
      <point x="49" y="0" type="line"/>
      <point x="178" y="0" type="line"/>
      <point x="197" y="204" type="line"/>
      <point x="260" y="643" type="line"/>
    </contour>
  </outline>
</glyph>
<glyph name="G" format="1">
  <advance width="585"/>
  <unicode hex="0047"/>
  <outline>
    <contour>
      <point x="165" y="651"/>
      <point x="35" y="507"/>
      <point x="35" y="252" type="curve" smooth="yes"/>
      <point x="35" y="88"/>
      <point x="127" y="-9"/>
      <point x="302" y="-9" type="curve" smooth="yes"/>
      <point x="373" y="-9"/>
      <point x="435" y="4"/>
      <point x="511" y="31" type="curve"/>
      <point x="529" y="187" type="line"/>
      <point x="541" y="274" type="line"/>
      <point x="419" y="266" type="line"/>
      <point x="409" y="166" type="line"/>
      <point x="400" y="111" type="line"/>
      <point x="363" y="99"/>
      <point x="342" y="95"/>
      <point x="316" y="95" type="curve" smooth="yes"/>
      <point x="216" y="95"/>
      <point x="172" y="142"/>
      <point x="172" y="257" type="curve" smooth="yes"/>
      <point x="172" y="465"/>
      <point x="244" y="544"/>
      <point x="372" y="544" type="curve" smooth="yes"/>
      <point x="430" y="544"/>
      <point x="473" y="528"/>
      <point x="531" y="492" type="curve"/>
      <point x="543" y="493" type="line"/>
      <point x="586" y="613" type="line"/>
      <point x="531" y="639"/>
      <point x="465" y="651"/>
      <point x="399" y="651" type="curve" smooth="yes"/>
    </contour>
    <contour>
      <point x="315" y="0" type="move" name="bottom"/>
    </contour>
    <contour>
      <point x="361" y="643" type="move" name="top"/>
    </contour>
  </outline>
</glyph>
<glyph name="H" format="1">
  <advance width="679"/>
  <unicode hex="0048"/>
  <outline>
    <contour>
      <point x="518" y="643" type="line"/>
      <point x="470" y="192" type="line"/>
      <point x="439" y="0" type="line"/>
      <point x="571" y="0" type="line"/>
      <point x="591" y="204" type="line"/>
      <point x="653" y="643" type="line"/>
    </contour>
    <contour>
      <point x="128" y="643" type="line"/>
      <point x="79" y="192" type="line"/>
      <point x="48" y="0" type="line"/>
      <point x="180" y="0" type="line"/>
      <point x="200" y="204" type="line"/>
      <point x="262" y="643" type="line"/>
    </contour>
    <contour>
      <point x="358" y="375" type="line"/>
      <point x="207" y="378" type="line"/>
      <point x="194" y="267" type="line"/>
      <point x="336" y="271" type="line"/>
      <point x="489" y="268" type="line"/>
      <point x="503" y="378" type="line"/>
    </contour>
    <contour>
      <point x="357" y="322" type="move" name="center"/>
    </contour>
    <contour>
      <point x="391" y="643" type="move" name="top"/>
    </contour>
  </outline>
</glyph>
<glyph name="L" format="1">
  <advance width="421"/>
  <unicode hex="004C"/>
  <outline>
    <contour>
      <point x="125" y="643" type="line"/>
      <point x="76" y="192" type="line"/>
      <point x="45" y="0" type="line"/>
      <point x="177" y="0" type="line"/>
      <point x="197" y="204" type="line"/>
      <point x="259" y="643" type="line"/>
    </contour>
    <contour>
      <point x="141" y="109" type="line"/>
      <point x="126" y="9" type="line"/>
      <point x="127" y="0" type="line"/>
      <point x="383" y="0" type="line"/>
      <point x="404" y="99" type="line"/>
      <point x="398" y="109" type="line"/>
    </contour>
    <contour>
      <point x="206" y="0" type="move" name="bottom"/>
    </contour>
    <contour>
      <point x="191" y="643" type="move" name="top"/>
    </contour>
  </outline>
</glyph>
<glyph name="P" format="1">
  <advance width="540"/>
  <unicode hex="0050"/>
  <outline>
    <contour>
      <point x="129" y="643" type="line"/>
      <point x="191" y="541" type="line"/>
      <point x="315" y="547" type="line"/>
      <point x="384" y="543"/>
      <point x="412" y="512"/>
      <point x="412" y="452" type="curve" smooth="yes"/>
      <point x="412" y="375"/>
      <point x="373" y="321"/>
      <point x="310" y="305" type="curve"/>
      <point x="135" y="311" type="line"/>
      <point x="122" y="207" type="line"/>
      <point x="268" y="207" type="line"/>
      <point x="441" y="207"/>
      <point x="550" y="319"/>
      <point x="550" y="473" type="curve" smooth="yes"/>
      <point x="550" y="587"/>
      <point x="476" y="644"/>
      <point x="359" y="644" type="curve"/>
    </contour>
    <contour>
      <point x="129" y="643" type="line"/>
      <point x="80" y="192" type="line"/>
      <point x="49" y="0" type="line"/>
      <point x="181" y="0" type="line"/>
      <point x="201" y="204" type="line"/>
      <point x="263" y="643" type="line"/>
    </contour>
  </outline>
</glyph>
<glyph name="Q" format="1">
  <advance width="632"/>
  <unicode hex="0051"/>
  <outline>
    <contour>
      <point x="156" y="652"/>
      <point x="37" y="499"/>
      <point x="37" y="263" type="curve" smooth="yes"/>
      <point x="37" y="85"/>
      <point x="130" y="-10"/>
      <point x="285" y="-10" type="curve" smooth="yes"/>
      <point x="500" y="-10"/>
      <point x="619" y="148"/>
      <point x="619" y="384" type="curve" smooth="yes"/>
      <point x="619" y="561"/>
      <point x="527" y="652"/>
      <point x="370" y="652" type="curve" smooth="yes"/>
    </contour>
    <contour>
      <point x="281" y="5" type="line"/>
      <point x="372" y="-86"/>
      <point x="485" y="-156"/>
      <point x="611" y="-201" type="curve"/>
      <point x="621" y="-196" type="line"/>
      <point x="647" y="-173"/>
      <point x="668" y="-146"/>
      <point x="688" y="-112" type="curve"/>
      <point x="684" y="-98" type="line"/>
      <point x="571" y="-71"/>
      <point x="467" y="-21"/>
      <point x="377" y="48" type="curve"/>
    </contour>
    <contour>
      <point x="443" y="545"/>
      <point x="480" y="493"/>
      <point x="480" y="373" type="curve" smooth="yes"/>
      <point x="480" y="173"/>
      <point x="416" y="92"/>
      <point x="299" y="92" type="curve" smooth="yes"/>
      <point x="210" y="92"/>
      <point x="174" y="145"/>
      <point x="174" y="266" type="curve" smooth="yes"/>
      <point x="174" y="465"/>
      <point x="236" y="545"/>
      <point x="354" y="545" type="curve" smooth="yes"/>
    </contour>
  </outline>
</glyph>
<glyph name="T" format="1">
  <advance width="489"/>
  <unicode hex="0054"/>
  <outline>
    <contour>
      <point x="230" y="629" type="line"/>
      <point x="183" y="192" type="line"/>
      <point x="151" y="0" type="line"/>
      <point x="283" y="0" type="line"/>
      <point x="302" y="204" type="line"/>
      <point x="361" y="629" type="line"/>
    </contour>
    <contour>
      <point x="75" y="643" type="line"/>
      <point x="54" y="545" type="line"/>
      <point x="61" y="535" type="line"/>
      <point x="181" y="541" type="line"/>
      <point x="388" y="541" type="line"/>
      <point x="504" y="535" type="line"/>
      <point x="525" y="633" type="line"/>
      <point x="519" y="643" type="line"/>
    </contour>
    <contour>
      <point x="217" y="0" type="move" name="bottom"/>
    </contour>
    <contour>
      <point x="263" y="322" type="move" name="center"/>
    </contour>
    <contour>
      <point x="296" y="643" type="move" name="top"/>
    </contour>
  </outline>
</glyph>
<glyph name="U" format="1">
  <advance width="622"/>
  <unicode hex="0055"/>
  <outline>
    <contour>
      <point x="480" y="643" type="line"/>
      <point x="436" y="238" type="line" smooth="yes"/>
      <point x="425" y="144"/>
      <point x="378" y="100"/>
      <point x="293" y="100" type="curve" smooth="yes"/>
      <point x="220" y="100"/>
      <point x="185" y="134"/>
      <point x="185" y="207" type="curve" smooth="yes"/>
      <point x="185" y="219"/>
      <point x="186" y="231"/>
      <point x="187" y="245" type="curve" smooth="yes"/>
      <point x="242" y="643" type="line"/>
      <point x="111" y="643" type="line"/>
      <point x="75" y="320" type="line"/>
      <point x="62" y="227" type="line" smooth="yes"/>
      <point x="59" y="210"/>
      <point x="58" y="193"/>
      <point x="58" y="178" type="curve" smooth="yes"/>
      <point x="58" y="57"/>
      <point x="143" y="-9"/>
      <point x="283" y="-9" type="curve" smooth="yes"/>
      <point x="446" y="-9"/>
      <point x="540" y="79"/>
      <point x="557" y="233" type="curve" smooth="yes"/>
      <point x="568" y="317" type="line"/>
      <point x="613" y="643" type="line"/>
    </contour>
    <contour>
      <point x="531" y="10" type="move" name="ogonek"/>
    </contour>
    <contour>
      <point x="362" y="643" type="move" name="top"/>
    </contour>
  </outline>
</glyph>
<glyph name="bracketleft" format="1">
  <advance width="295"/>
  <unicode hex="005B"/>
  <outline>
    <contour>
      <point x="125" y="638" type="line"/>
      <point x="86" y="261" type="line"/>
      <point x="33" y="-117" type="line"/>
      <point x="239" y="-127" type="line"/>
      <point x="246" y="-120" type="line"/>
      <point x="253" y="-61" type="line"/>
      <point x="147" y="-48" type="line"/>
      <point x="222" y="569" type="line"/>
      <point x="332" y="582" type="line"/>
      <point x="339" y="641" type="line"/>
      <point x="334" y="648" type="line"/>
    </contour>
  </outline>
</glyph>
<glyph name="a" format="1">
  <advance width="517"/>
  <unicode hex="0061"/>
  <outline>
    <contour>
      <point x="226" y="505" type="line"/>
      <point x="-11" y="0" type="line"/>
      <point x="108" y="0" type="line"/>
      <point x="133" y="78" type="line"/>
      <point x="277" y="393" type="line"/>
      <point x="285" y="393" type="line"/>
      <point x="339" y="71" type="line"/>
      <point x="342" y="0" type="line"/>
      <point x="465" y="0" type="line"/>
      <point x="370" y="505" type="line"/>
    </contour>
    <contour>
      <point x="250" y="195" type="line"/>
      <point x="132" y="197" type="line"/>
      <point x="119" y="103" type="line"/>
      <point x="231" y="105" type="line"/>
      <point x="349" y="103" type="line"/>
      <point x="360" y="197" type="line"/>
    </contour>
    <contour>
      <point x="435" y="10" type="move" name="ogonek"/>
    </contour>
    <contour>
      <point x="292" y="505" type="move" name="top"/>
    </contour>
  </outline>
</glyph>
<glyph name="b" format="1">
  <advance width="507"/>
  <unicode hex="0062"/>
  <outline>
    <contour>
      <point x="106" y="505" type="line"/>
      <point x="163" y="416" type="line"/>
      <point x="204" y="418"/>
      <point x="229" y="418"/>
      <point x="260" y="418" type="curve" smooth="yes"/>
      <point x="313" y="418"/>
      <point x="335" y="406"/>
      <point x="335" y="370" type="curve" smooth="yes"/>
      <point x="335" y="327"/>
      <point x="315" y="304"/>
      <point x="274" y="294" type="curve"/>
      <point x="124" y="300" type="line"/>
      <point x="113" y="208" type="line"/>
      <point x="277" y="211" type="line"/>
      <point x="315" y="202"/>
      <point x="332" y="185"/>
      <point x="332" y="156" type="curve" smooth="yes"/>
      <point x="332" y="107"/>
      <point x="292" y="82"/>
      <point x="227" y="82" type="curve"/>
      <point x="202" y="82"/>
      <point x="157" y="86"/>
      <point x="128" y="91" type="curve"/>
      <point x="44" y="0" type="line"/>
      <point x="96" y="-2"/>
      <point x="173" y="-4"/>
      <point x="208" y="-4" type="curve" smooth="yes"/>
      <point x="371" y="-4"/>
      <point x="458" y="47"/>
      <point x="458" y="148" type="curve" smooth="yes"/>
      <point x="458" y="209"/>
      <point x="426" y="241"/>
      <point x="369" y="261" type="curve"/>
      <point x="429" y="286"/>
      <point x="464" y="332"/>
      <point x="464" y="390" type="curve" smooth="yes"/>
      <point x="464" y="466"/>
      <point x="401" y="505"/>
      <point x="302" y="505" type="curve" smooth="yes"/>
    </contour>
    <contour>
      <point x="106" y="505" type="line"/>
      <point x="68" y="150" type="line"/>
      <point x="44" y="0" type="line"/>
      <point x="164" y="0" type="line"/>
      <point x="179" y="161" type="line"/>
      <point x="227" y="505" type="line"/>
    </contour>
  </outline>
</glyph>
<glyph name="d" format="1">
  <advance width="561"/>
  <unicode hex="0064"/>
  <outline>
    <contour>
      <point x="106" y="505" type="line"/>
      <point x="202" y="405" type="line"/>
      <point x="229" y="408"/>
      <point x="281" y="410"/>
      <point x="301" y="410" type="curve" smooth="yes"/>
      <point x="370" y="410"/>
      <point x="404" y="373"/>
      <point x="404" y="287" type="curve" smooth="yes"/>
      <point x="404" y="146"/>
      <point x="350" y="88"/>
      <point x="263" y="88" type="curve" smooth="yes"/>
      <point x="242" y="88"/>
      <point x="186" y="93"/>
      <point x="159" y="96" type="curve"/>
      <point x="44" y="0" type="line"/>
      <point x="99" y="-3"/>
      <point x="192" y="-6"/>
      <point x="237" y="-6" type="curve" smooth="yes"/>
      <point x="430" y="-6"/>
      <point x="533" y="113"/>
      <point x="533" y="308" type="curve" smooth="yes"/>
      <point x="533" y="436"/>
      <point x="452" y="508"/>
      <point x="317" y="508" type="curve"/>
    </contour>
    <contour>
      <point x="106" y="505" type="line"/>
      <point x="67" y="150" type="line"/>
      <point x="44" y="0" type="line"/>
      <point x="166" y="0" type="line"/>
      <point x="181" y="161" type="line"/>
      <point x="230" y="505" type="line"/>
    </contour>
    <contour>
      <point x="256" y="253" type="move" name="center"/>
    </contour>
    <contour>
      <point x="298" y="505" type="move" name="top"/>
    </contour>
  </outline>
</glyph>
<glyph name="e" format="1">
  <advance width="446"/>
  <unicode hex="0065"/>
  <outline>
    <contour>
      <point x="106" y="505" type="line"/>
      <point x="68" y="150" type="line"/>
      <point x="44" y="0" type="line"/>
      <point x="166" y="0" type="line"/>
      <point x="181" y="161" type="line"/>
      <point x="230" y="505" type="line"/>
    </contour>
    <contour>
      <point x="262" y="96" type="line"/>
      <point x="138" y="96" type="line"/>
      <point x="126" y="8" type="line"/>
      <point x="126" y="0" type="line"/>
      <point x="382" y="0" type="line"/>
      <point x="402" y="91" type="line"/>
      <point x="395" y="100" type="line"/>
    </contour>
    <contour>
      <point x="291" y="303" type="line"/>
      <point x="170" y="304" type="line"/>
      <point x="158" y="215" type="line"/>
      <point x="158" y="207" type="line"/>
      <point x="270" y="208" type="line"/>
      <point x="363" y="205" type="line"/>
      <point x="381" y="297" type="line"/>
      <point x="376" y="306" type="line"/>
    </contour>
    <contour>
      <point x="189" y="505" type="line"/>
      <point x="177" y="416" type="line"/>
      <point x="177" y="409" type="line"/>
      <point x="310" y="409" type="line"/>
      <point x="435" y="404" type="line"/>
      <point x="455" y="495" type="line"/>
      <point x="449" y="505" type="line"/>
    </contour>
    <contour>
      <point x="230" y="0" type="move" name="bottom"/>
    </contour>
    <contour>
      <point x="382" y="10" type="move" name="ogonek"/>
    </contour>
    <contour>
      <point x="270" y="505" type="move" name="top"/>
    </contour>
  </outline>
</glyph>
<glyph name="f" format="1">
  <advance width="397"/>
  <unicode hex="0066"/>
  <outline>
    <contour>
      <point x="102" y="505" type="line"/>
      <point x="64" y="150" type="line"/>
      <point x="40" y="0" type="line"/>
      <point x="162" y="0" type="line"/>
      <point x="177" y="161" type="line"/>
      <point x="226" y="505" type="line"/>
    </contour>
    <contour>
      <point x="264" y="287" type="line"/>
      <point x="162" y="287" type="line"/>
      <point x="150" y="190" type="line"/>
      <point x="242" y="191" type="line"/>
      <point x="341" y="189" type="line"/>
      <point x="361" y="280" type="line"/>
      <point x="354" y="290" type="line"/>
    </contour>
    <contour>
      <point x="184" y="505" type="line"/>
      <point x="172" y="416" type="line"/>
      <point x="172" y="409" type="line"/>
      <point x="284" y="409" type="line"/>
      <point x="409" y="404" type="line"/>
      <point x="429" y="495" type="line"/>
      <point x="423" y="505" type="line"/>
    </contour>
  </outline>
</glyph>
<glyph name="i" format="1">
  <advance width="275"/>
  <unicode hex="0069"/>
  <outline>
    <contour>
      <point x="107" y="505" type="line"/>
      <point x="69" y="150" type="line"/>
      <point x="45" y="0" type="line"/>
      <point x="167" y="0" type="line"/>
      <point x="182" y="161" type="line"/>
      <point x="231" y="505" type="line"/>
    </contour>
    <contour>
      <point x="216" y="8" type="move" name="ogonek"/>
    </contour>
    <contour>
      <point x="166" y="505" type="move" name="top"/>
    </contour>
  </outline>
</glyph>
<glyph name="l" format="1">
  <advance width="382"/>
  <unicode hex="006C"/>
  <outline>
    <contour>
      <point x="103" y="505" type="line"/>
      <point x="65" y="150" type="line"/>
      <point x="41" y="0" type="line"/>
      <point x="163" y="0" type="line"/>
      <point x="178" y="161" type="line"/>
      <point x="227" y="505" type="line"/>
    </contour>
    <contour>
      <point x="129" y="101" type="line"/>
      <point x="116" y="8" type="line"/>
      <point x="116" y="0" type="line"/>
      <point x="330" y="0" type="line"/>
      <point x="350" y="92" type="line"/>
      <point x="344" y="101" type="line"/>
    </contour>
    <contour>
      <point x="190" y="0" type="move" name="bottom"/>
    </contour>
    <contour>
      <point x="165" y="505" type="move" name="top"/>
    </contour>
  </outline>
</glyph>
<glyph name="m" format="1">
  <advance width="672"/>
  <unicode hex="006D"/>
  <outline>
    <contour>
      <point x="476" y="505" type="line"/>
      <point x="444" y="429" type="line"/>
      <point x="337" y="209" type="line"/>
      <point x="329" y="209" type="line"/>
      <point x="283" y="431" type="line"/>
      <point x="273" y="505" type="line"/>
      <point x="132" y="505" type="line"/>
      <point x="16" y="0" type="line"/>
      <point x="119" y="0" type="line"/>
      <point x="149" y="165" type="line"/>
      <point x="187" y="325" type="line"/>
      <point x="195" y="325" type="line"/>
      <point x="260" y="51" type="line"/>
      <point x="353" y="51" type="line"/>
      <point x="499" y="325" type="line"/>
      <point x="506" y="325" type="line"/>
      <point x="502" y="153" type="line"/>
      <point x="490" y="0" type="line"/>
      <point x="597" y="0" type="line"/>
      <point x="613" y="505" type="line"/>
    </contour>
  </outline>
</glyph>
<glyph name="n" format="1">
  <advance width="594"/>
  <unicode hex="006E"/>
  <outline>
    <contour>
      <point x="443" y="500" type="line"/>
      <point x="408" y="184" type="line"/>
      <point x="400" y="184" type="line"/>
      <point x="237" y="505" type="line"/>
      <point x="107" y="505" type="line"/>
      <point x="68" y="148" type="line"/>
      <point x="44" y="0" type="line"/>
      <point x="153" y="0" type="line"/>
      <point x="172" y="176" type="line"/>
      <point x="190" y="320" type="line"/>
      <point x="197" y="320" type="line"/>
      <point x="359" y="0" type="line"/>
      <point x="490" y="0" type="line"/>
      <point x="505" y="158" type="line"/>
      <point x="555" y="507" type="line"/>
    </contour>
    <contour>
      <point x="266" y="0" type="move" name="bottom"/>
    </contour>
    <contour>
      <point x="328" y="505" type="move" name="top"/>
    </contour>
  </outline>
</glyph>
<glyph name="o" format="1">
  <advance width="552"/>
  <unicode hex="006F"/>
  <outline>
    <contour>
      <point x="132" y="512"/>
      <point x="32" y="390"/>
      <point x="32" y="217" type="curve" smooth="yes"/>
      <point x="32" y="64"/>
      <point x="111" y="-9"/>
      <point x="245" y="-9" type="curve" smooth="yes"/>
      <point x="423" y="-9"/>
      <point x="524" y="117"/>
      <point x="524" y="290" type="curve" smooth="yes"/>
      <point x="524" y="442"/>
      <point x="445" y="512"/>
      <point x="312" y="512" type="curve" smooth="yes"/>
    </contour>
    <contour>
      <point x="370" y="413"/>
      <point x="396" y="378"/>
      <point x="396" y="280" type="curve" smooth="yes"/>
      <point x="396" y="139"/>
      <point x="349" y="87"/>
      <point x="260" y="87" type="curve" smooth="yes"/>
      <point x="186" y="87"/>
      <point x="160" y="120"/>
      <point x="160" y="220" type="curve" smooth="yes"/>
      <point x="160" y="363"/>
      <point x="209" y="413"/>
      <point x="296" y="413" type="curve" smooth="yes"/>
    </contour>
    <contour>
      <point x="306" y="505" type="move" name="top"/>
    </contour>
  </outline>
</glyph>
<glyph name="p" format="1">
  <advance width="484"/>
  <unicode hex="0070"/>
  <outline>
    <contour>
      <point x="107" y="505" type="line"/>
      <point x="166" y="412" type="line"/>
      <point x="274" y="416" type="line"/>
      <point x="324" y="413"/>
      <point x="345" y="394"/>
      <point x="345" y="349" type="curve" smooth="yes"/>
      <point x="345" y="300"/>
      <point x="321" y="262"/>
      <point x="271" y="245" type="curve"/>
      <point x="119" y="251" type="line"/>
      <point x="107" y="156" type="line"/>
      <point x="240" y="156" type="line"/>
      <point x="375" y="156"/>
      <point x="475" y="244"/>
      <point x="475" y="358" type="curve" smooth="yes"/>
      <point x="475" y="451"/>
      <point x="408" y="505"/>
      <point x="308" y="505" type="curve"/>
    </contour>
    <contour>
      <point x="107" y="505" type="line"/>
      <point x="68" y="150" type="line"/>
      <point x="44" y="0" type="line"/>
      <point x="166" y="0" type="line"/>
      <point x="182" y="161" type="line"/>
      <point x="231" y="505" type="line"/>
    </contour>
  </outline>
</glyph>
<glyph name="q" format="1">
  <advance width="553"/>
  <unicode hex="0071"/>
  <outline>
    <contour>
      <point x="132" y="512"/>
      <point x="32" y="390"/>
      <point x="32" y="217" type="curve" smooth="yes"/>
      <point x="32" y="64"/>
      <point x="111" y="-9"/>
      <point x="245" y="-9" type="curve" smooth="yes"/>
      <point x="423" y="-9"/>
      <point x="524" y="117"/>
      <point x="524" y="290" type="curve" smooth="yes"/>
      <point x="524" y="442"/>
      <point x="445" y="512"/>
      <point x="312" y="512" type="curve" smooth="yes"/>
    </contour>
    <contour>
      <point x="242" y="6" type="line"/>
      <point x="315" y="-65"/>
      <point x="403" y="-122"/>
      <point x="497" y="-160" type="curve"/>
      <point x="507" y="-156" type="line"/>
      <point x="534" y="-135"/>
      <point x="552" y="-111"/>
      <point x="572" y="-81" type="curve"/>
      <point x="569" y="-69" type="line"/>
      <point x="480" y="-47"/>
      <point x="397" y="-9"/>
      <point x="326" y="42" type="curve"/>
    </contour>
    <contour>
      <point x="370" y="413"/>
      <point x="396" y="378"/>
      <point x="396" y="280" type="curve" smooth="yes"/>
      <point x="396" y="139"/>
      <point x="349" y="87"/>
      <point x="260" y="87" type="curve" smooth="yes"/>
      <point x="186" y="87"/>
      <point x="160" y="120"/>
      <point x="160" y="220" type="curve" smooth="yes"/>
      <point x="160" y="363"/>
      <point x="209" y="413"/>
      <point x="296" y="413" type="curve" smooth="yes"/>
    </contour>
  </outline>
</glyph>
<glyph name="r" format="1">
  <advance width="513"/>
  <unicode hex="0072"/>
  <outline>
    <contour>
      <point x="107" y="505" type="line"/>
      <point x="165" y="411" type="line"/>
      <point x="274" y="416" type="line"/>
      <point x="322" y="413"/>
      <point x="345" y="395"/>
      <point x="345" y="351" type="curve" smooth="yes"/>
      <point x="345" y="303"/>
      <point x="321" y="271"/>
      <point x="271" y="254" type="curve"/>
      <point x="120" y="262" type="line"/>
      <point x="108" y="164" type="line"/>
      <point x="265" y="165" type="line"/>
      <point x="390" y="192"/>
      <point x="475" y="266"/>
      <point x="475" y="369" type="curve" smooth="yes"/>
      <point x="475" y="454"/>
      <point x="412" y="505"/>
      <point x="312" y="505" type="curve"/>
    </contour>
    <contour>
      <point x="107" y="505" type="line"/>
      <point x="68" y="150" type="line"/>
      <point x="44" y="0" type="line"/>
      <point x="166" y="0" type="line"/>
      <point x="181" y="161" type="line"/>
      <point x="231" y="505" type="line"/>
    </contour>
    <contour>
      <point x="236" y="224" type="line"/>
      <point x="261" y="149"/>
      <point x="293" y="75"/>
      <point x="323" y="4" type="curve"/>
      <point x="340" y="-8" type="line"/>
      <point x="381" y="-5"/>
      <point x="420" y="3"/>
      <point x="460" y="15" type="curve"/>
      <point x="464" y="29" type="line"/>
      <point x="421" y="93"/>
      <point x="383" y="159"/>
      <point x="348" y="225" type="curve"/>
    </contour>
    <contour>
      <point x="245" y="0" type="move" name="bottom"/>
    </contour>
    <contour>
      <point x="276" y="505" type="move" name="top"/>
    </contour>
  </outline>
</glyph>
<glyph name="w" format="1">
  <advance width="757"/>
  <unicode hex="0077"/>
  <outline>
    <contour>
      <point x="665" y="505" type="line"/>
      <point x="641" y="430" type="line"/>
      <point x="510" y="127" type="line"/>
      <point x="501" y="127" type="line"/>
      <point x="454" y="424" type="line"/>
      <point x="452" y="505" type="line"/>
      <point x="327" y="505" type="line"/>
      <point x="346" y="384" type="line"/>
      <point x="232" y="127" type="line"/>
      <point x="225" y="127" type="line"/>
      <point x="181" y="436" type="line"/>
      <point x="181" y="505" type="line"/>
      <point x="61" y="505" type="line"/>
      <point x="139" y="0" type="line"/>
      <point x="270" y="0" type="line"/>
      <point x="368" y="221" type="line"/>
      <point x="375" y="221" type="line"/>
      <point x="419" y="0" type="line"/>
      <point x="549" y="0" type="line"/>
      <point x="779" y="505" type="line"/>
    </contour>
    <contour>
      <point x="394" y="505" type="move" name="top"/>
    </contour>
  </outline>
</glyph>
<glyph name="z" format="1">
  <advance width="473"/>
  <unicode hex="007A"/>
  <outline>
    <contour>
      <point x="414" y="505" type="line"/>
      <point x="190" y="505" type="line"/>
      <point x="81" y="506" type="line"/>
      <point x="60" y="409" type="line"/>
      <point x="63" y="402" type="line"/>
      <point x="154" y="411" type="line"/>
      <point x="312" y="411" type="line"/>
      <point x="18" y="84" type="line"/>
      <point x="7" y="-3" type="line"/>
      <point x="74" y="0" type="line"/>
      <point x="275" y="0" type="line"/>
      <point x="402" y="-3" type="line"/>
      <point x="425" y="95" type="line"/>
      <point x="421" y="101" type="line"/>
      <point x="326" y="92" type="line"/>
      <point x="164" y="92" type="line"/>
      <point x="455" y="416" type="line"/>
      <point x="466" y="505" type="line"/>
    </contour>
    <contour>
      <point x="268" y="505" type="move" name="top"/>
    </contour>
  </outline>
</glyph>
<glyph name="yen" format="1">
  <advance width="551"/>
  <unicode hex="00A5"/>
  <outline>
    <contour>
      <point x="34" y="171" type="line"/>
      <point x="24" y="118" type="line"/>
      <point x="28" y="112" type="line"/>
      <point x="497" y="112" type="line"/>
      <point x="506" y="165" type="line"/>
      <point x="501" y="171" type="line"/>
    </contour>
    <contour>
      <point x="51" y="308" type="line"/>
      <point x="41" y="255" type="line"/>
      <point x="45" y="248" type="line"/>
      <point x="221" y="248" type="line"/>
      <point x="223" y="308" type="line"/>
    </contour>
    <contour>
      <point x="340" y="308" type="line"/>
      <point x="327" y="248" type="line"/>
      <point x="512" y="248" type="line"/>
      <point x="524" y="302" type="line"/>
      <point x="518" y="308" type="line"/>
    </contour>
    <contour>
      <point x="433" y="503" type="line"/>
      <point x="413" y="464" type="line"/>
      <point x="281" y="280" type="line"/>
      <point x="273" y="280" type="line"/>
      <point x="199" y="468" type="line"/>
      <point x="191" y="503" type="line"/>
      <point x="74" y="503" type="line"/>
      <point x="234" y="103" type="line"/>
      <point x="270" y="103" type="line"/>
      <point x="548" y="503" type="line"/>
    </contour>
    <contour>
      <point x="214" y="217" type="line"/>
      <point x="207" y="139" type="line"/>
      <point x="184" y="0" type="line"/>
      <point x="294" y="0" type="line"/>
      <point x="307" y="139" type="line"/>
      <point x="320" y="217" type="line"/>
    </contour>
    <contour>
      <point x="311" y="505" type="move" name="top"/>
    </contour>
  </outline>
</glyph>
<glyph name="macron" format="1">
  <advance width="390"/>
  <unicode hex="00AF"/>
  <outline>
    <contour>
      <point x="101" y="659" type="line"/>
      <point x="94" y="586" type="line"/>
      <point x="102" y="577" type="line"/>
      <point x="383" y="577" type="line"/>
      <point x="389" y="650" type="line"/>
      <point x="381" y="659" type="line"/>
    </contour>
    <contour>
      <point x="223" y="464" type="move" name="_top"/>
    </contour>
  </outline>
</glyph>
<glyph name="cedilla" format="1">
  <advance width="390"/>
  <unicode hex="00B8"/>
  <outline>
    <contour>
      <point x="116" y="25" type="line"/>
      <point x="92" y="-75" type="line"/>
      <point x="141" y="-103" type="line" smooth="yes"/>
      <point x="152" y="-108"/>
      <point x="159" y="-113"/>
      <point x="159" y="-123" type="curve" smooth="yes"/>
      <point x="159" y="-137"/>
      <point x="149" y="-145"/>
      <point x="134" y="-145" type="curve" smooth="yes"/>
      <point x="114" y="-145"/>
      <point x="94" y="-133"/>
      <point x="75" y="-115" type="curve"/>
      <point x="69" y="-117" type="line"/>
      <point x="60" y="-172" type="line"/>
      <point x="80" y="-188"/>
      <point x="107" y="-201"/>
      <point x="141" y="-201" type="curve" smooth="yes"/>
      <point x="198" y="-201"/>
      <point x="235" y="-169"/>
      <point x="235" y="-126" type="curve" smooth="yes"/>
      <point x="235" y="-103"/>
      <point x="225" y="-84"/>
      <point x="194" y="-67" type="curve" smooth="yes"/>
      <point x="160" y="-48" type="line"/>
      <point x="178" y="25" type="line"/>
    </contour>
    <contour>
      <point x="158" y="-1" type="move" name="_bottom"/>
    </contour>
  </outline>
</glyph>
<glyph name="multiply" format="1">
  <advance width="481"/>
  <unicode hex="00D7"/>
  <outline>
    <contour>
      <point x="252" y="323" type="line"/>
      <point x="148" y="440" type="line"/>
      <point x="82" y="389" type="line"/>
      <point x="80" y="376" type="line"/>
      <point x="182" y="261" type="line"/>
      <point x="51" y="144" type="line"/>
      <point x="50" y="133" type="line"/>
      <point x="103" y="81" type="line"/>
      <point x="236" y="198" type="line"/>
      <point x="339" y="81" type="line"/>
      <point x="405" y="133" type="line"/>
      <point x="407" y="145" type="line"/>
      <point x="306" y="261" type="line"/>
      <point x="436" y="376" type="line"/>
      <point x="437" y="389" type="line"/>
      <point x="383" y="440" type="line"/>
    </contour>
  </outline>
</glyph>
<glyph name="germandbls" format="1">
  <advance width="577"/>
  <unicode hex="00DF"/>
  <outline>
    <contour>
      <point x="179" y="512"/>
      <point x="89" y="436"/>
      <point x="74" y="322" type="curve" smooth="yes"/>
      <point x="55" y="148" type="line"/>
      <point x="31" y="0" type="line"/>
      <point x="153" y="0" type="line"/>
      <point x="168" y="161" type="line"/>
      <point x="192" y="322" type="line"/>
      <point x="199" y="383"/>
      <point x="236" y="414"/>
      <point x="305" y="414" type="curve" smooth="yes"/>
      <point x="333" y="414"/>
      <point x="355" y="408"/>
      <point x="381" y="395" type="curve"/>
      <point x="261" y="262" type="line"/>
      <point x="262" y="246" type="line"/>
      <point x="362" y="204"/>
      <point x="408" y="182"/>
      <point x="408" y="145" type="curve" smooth="yes"/>
      <point x="408" y="114"/>
      <point x="382" y="90"/>
      <point x="344" y="90" type="curve" smooth="yes"/>
      <point x="314" y="90"/>
      <point x="273" y="109"/>
      <point x="238" y="142" type="curve"/>
      <point x="227" y="137" type="line"/>
      <point x="198" y="24" type="line"/>
      <point x="238" y="4"/>
      <point x="291" y="-8"/>
      <point x="340" y="-8" type="curve" smooth="yes"/>
      <point x="445" y="-8"/>
      <point x="541" y="44"/>
      <point x="541" y="154" type="curve" smooth="yes"/>
      <point x="541" y="214"/>
      <point x="502" y="250"/>
      <point x="410" y="298" type="curve"/>
      <point x="540" y="442" type="line"/>
      <point x="537" y="458" type="line"/>
      <point x="462" y="494"/>
      <point x="403" y="512"/>
      <point x="329" y="512" type="curve" smooth="yes"/>
    </contour>
  </outline>
</glyph>
<glyph name="oslash" format="1">
  <advance width="552"/>
  <unicode hex="00F8"/>
  <outline>
    <contour>
      <point x="125" y="92" type="line"/>
      <point x="27" y="-53" type="line"/>
      <point x="29" y="-65" type="line"/>
      <point x="93" y="-106" type="line"/>
      <point x="196" y="46" type="line"/>
    </contour>
    <contour>
      <point x="434" y="409" type="line"/>
      <point x="523" y="541" type="line"/>
      <point x="518" y="553" type="line"/>
      <point x="457" y="594" type="line"/>
      <point x="366" y="459" type="line"/>
    </contour>
    <component base="o"/>
    <contour>
      <point x="296" y="506" type="move" name="top"/>
    </contour>
  </outline>
</glyph>
<glyph name="thorn" format="1">
  <advance width="490"/>
  <unicode hex="00FE"/>
  <outline>
    <contour>
      <point x="106" y="505" type="line"/>
      <point x="67" y="150" type="line"/>
      <point x="44" y="0" type="line"/>
      <point x="168" y="0" type="line"/>
      <point x="182" y="161" type="line"/>
      <point x="232" y="505" type="line"/>
    </contour>
    <contour>
      <point x="104" y="429" type="line"/>
      <point x="163" y="337" type="line"/>
      <point x="269" y="342" type="line"/>
      <point x="319" y="338"/>
      <point x="340" y="320"/>
      <point x="340" y="275" type="curve" smooth="yes"/>
      <point x="340" y="226"/>
      <point x="316" y="188"/>
      <point x="266" y="171" type="curve"/>
      <point x="116" y="177" type="line"/>
      <point x="104" y="83" type="line"/>
      <point x="235" y="83" type="line"/>
      <point x="370" y="83"/>
      <point x="469" y="171"/>
      <point x="469" y="284" type="curve" smooth="yes"/>
      <point x="469" y="376"/>
      <point x="403" y="430"/>
      <point x="303" y="430" type="curve"/>
    </contour>
  </outline>
</glyph>
<glyph name="Aogonek" format="1">
  <advance width="583"/>
  <unicode hex="0104"/>
  <outline>
    <contour>
      <point x="406" y="0" type="line"/>
      <point x="363" y="-58"/>
      <point x="351" y="-87"/>
      <point x="351" y="-117" type="curve" smooth="yes"/>
      <point x="351" y="-166"/>
      <point x="382" y="-196"/>
      <point x="429" y="-196" type="curve" smooth="yes"/>
      <point x="462" y="-196"/>
      <point x="492" y="-179"/>
      <point x="526" y="-148" type="curve"/>
      <point x="523" y="-90" type="line"/>
      <point x="516" y="-90" type="line"/>
      <point x="494" y="-110"/>
      <point x="473" y="-122"/>
      <point x="454" y="-122" type="curve" smooth="yes"/>
      <point x="437" y="-122"/>
      <point x="427" y="-114"/>
      <point x="427" y="-95" type="curve" smooth="yes"/>
      <point x="427" y="-75"/>
      <point x="437" y="-52"/>
      <point x="483" y="1" type="curve"/>
    </contour>
    <component base="A"/>
  </outline>
</glyph>
<glyph name="hbar" format="1">
  <advance width="593"/>
  <unicode hex="0127"/>
  <outline>
    <contour>
      <point x="46" y="433" type="line"/>
      <point x="33" y="372" type="line"/>
      <point x="38" y="365" type="line"/>
      <point x="587" y="365" type="line"/>
      <point x="600" y="427" type="line"/>
      <point x="595" y="433" type="line"/>
    </contour>
    <component base="h"/>
  </outline>
</glyph>
<glyph name="Iogonek" format="1">
  <advance width="290"/>
  <unicode hex="012E"/>
  <outline>
    <contour>
      <point x="58" y="13" type="line"/>
      <point x="7" y="-51"/>
      <point x="-8" y="-80"/>
      <point x="-8" y="-113" type="curve" smooth="yes"/>
      <point x="-8" y="-163"/>
      <point x="26" y="-197"/>
      <point x="76" y="-197" type="curve" smooth="yes"/>
      <point x="112" y="-197"/>
      <point x="142" y="-179"/>
      <point x="175" y="-149" type="curve"/>
      <point x="162" y="-93" type="line"/>
      <point x="155" y="-93" type="line"/>
      <point x="136" y="-113"/>
      <point x="114" y="-123"/>
      <point x="95" y="-123" type="curve" smooth="yes"/>
      <point x="75" y="-123"/>
      <point x="64" y="-112"/>
      <point x="64" y="-94" type="curve" smooth="yes"/>
      <point x="64" y="-73"/>
      <point x="76" y="-48"/>
      <point x="128" y="13" type="curve"/>
    </contour>
    <component base="I"/>
  </outline>
</glyph>
<glyph name="iogonek" format="1">
  <advance width="275"/>
  <unicode hex="012F"/>
  <outline>
    <contour>
      <point x="55" y="13" type="line"/>
      <point x="4" y="-51"/>
      <point x="-11" y="-80"/>
      <point x="-11" y="-113" type="curve" smooth="yes"/>
      <point x="-11" y="-163"/>
      <point x="23" y="-197"/>
      <point x="73" y="-197" type="curve" smooth="yes"/>
      <point x="109" y="-197"/>
      <point x="139" y="-179"/>
      <point x="172" y="-149" type="curve"/>
      <point x="159" y="-93" type="line"/>
      <point x="152" y="-93" type="line"/>
      <point x="133" y="-113"/>
      <point x="111" y="-123"/>
      <point x="92" y="-123" type="curve" smooth="yes"/>
      <point x="72" y="-123"/>
      <point x="61" y="-112"/>
      <point x="61" y="-94" type="curve" smooth="yes"/>
      <point x="61" y="-73"/>
      <point x="73" y="-48"/>
      <point x="125" y="13" type="curve"/>
    </contour>
    <component base="i"/>
  </outline>
</glyph>
<glyph name="lcaron" format="1">
  <advance width="406"/>
  <unicode hex="013E"/>
  <outline>
    <contour>
      <point x="253" y="192" type="move"/>
    </contour>
    <component base="l"/>
    <component base="caron.alt" xOffset="118" yOffset="-231"/>
  </outline>
</glyph>
<glyph name="Lslash" format="1">
  <advance width="430"/>
  <unicode hex="0141"/>
  <outline>
    <contour>
      <point x="3" y="302" type="line"/>
      <point x="17" y="225" type="line"/>
      <point x="28" y="219" type="line"/>
      <point x="368" y="387" type="line"/>
      <point x="353" y="464" type="line"/>
      <point x="341" y="470" type="line"/>
    </contour>
    <component base="L" xOffset="8"/>
  </outline>
</glyph>
<glyph name="OE" format="1">
  <advance width="847"/>
  <unicode hex="0152"/>
  <outline>
    <contour>
      <point x="174" y="655"/>
      <point x="36" y="505"/>
      <point x="36" y="261" type="curve" smooth="yes"/>
      <point x="36" y="89"/>
      <point x="128" y="-12"/>
      <point x="294" y="-12" type="curve" smooth="yes"/>
      <point x="363" y="-12"/>
      <point x="435" y="2"/>
      <point x="494" y="0" type="curve"/>
      <point x="791" y="0" type="line"/>
      <point x="812" y="99" type="line"/>
      <point x="805" y="109" type="line"/>
      <point x="648" y="104" type="line"/>
      <point x="540" y="105" type="line"/>
      <point x="551" y="202" type="line"/>
      <point x="559" y="274" type="line"/>
      <point x="657" y="275" type="line"/>
      <point x="771" y="272" type="line"/>
      <point x="792" y="371" type="line"/>
      <point x="786" y="381" type="line"/>
      <point x="679" y="378" type="line"/>
      <point x="576" y="379" type="line"/>
      <point x="596" y="539" type="line"/>
      <point x="713" y="539" type="line"/>
      <point x="859" y="534" type="line"/>
      <point x="881" y="633" type="line"/>
      <point x="874" y="643" type="line"/>
      <point x="574" y="643" type="line" smooth="yes"/>
      <point x="518" y="643"/>
      <point x="465" y="655"/>
      <point x="397" y="655" type="curve" smooth="yes"/>
    </contour>
    <contour>
      <point x="412" y="548"/>
      <point x="444" y="542"/>
      <point x="455" y="534" type="curve" smooth="yes"/>
      <point x="463" y="529"/>
      <point x="465" y="517"/>
      <point x="462" y="492" type="curve" smooth="yes"/>
      <point x="424" y="145" type="line" smooth="yes"/>
      <point x="422" y="121"/>
      <point x="414" y="109"/>
      <point x="399" y="102" type="curve" smooth="yes"/>
      <point x="385" y="95"/>
      <point x="354" y="90"/>
      <point x="318" y="90" type="curve" smooth="yes"/>
      <point x="219" y="90"/>
      <point x="174" y="147"/>
      <point x="174" y="265" type="curve" smooth="yes"/>
      <point x="174" y="464"/>
      <point x="242" y="548"/>
      <point x="373" y="548" type="curve" smooth="yes"/>
    </contour>
    <contour>
      <point x="618" y="643" type="move" name="top"/>
    </contour>
  </outline>
</glyph>
<glyph name="tcedilla" format="1">
  <advance width="437"/>
  <unicode hex="0163"/>
  <outline>
    <contour>
      <point x="166" y="20" type="line"/>
      <point x="133" y="-74" type="line"/>
      <point x="176" y="-102" type="line" smooth="yes"/>
      <point x="185" y="-107"/>
      <point x="190" y="-112"/>
      <point x="190" y="-121" type="curve" smooth="yes"/>
      <point x="190" y="-136"/>
      <point x="179" y="-146"/>
      <point x="163" y="-146" type="curve" smooth="yes"/>
      <point x="145" y="-146"/>
      <point x="126" y="-134"/>
      <point x="111" y="-116" type="curve"/>
      <point x="106" y="-118" type="line"/>
      <point x="90" y="-171" type="line"/>
      <point x="107" y="-187"/>
      <point x="131" y="-199"/>
      <point x="164" y="-199" type="curve" smooth="yes"/>
      <point x="221" y="-199"/>
      <point x="264" y="-165"/>
      <point x="264" y="-119" type="curve" smooth="yes"/>
      <point x="264" y="-99"/>
      <point x="255" y="-83"/>
      <point x="231" y="-67" type="curve" smooth="yes"/>
      <point x="201" y="-48" type="line"/>
      <point x="225" y="20" type="line"/>
    </contour>
    <component base="t" xOffset="-3"/>
  </outline>
</glyph>
<glyph name="Tbar" format="1">
  <advance width="489"/>
  <unicode hex="0166"/>
  <outline>
    <contour>
      <point x="103" y="341" type="line"/>
      <point x="98" y="277" type="line"/>
      <point x="106" y="269" type="line"/>
      <point x="414" y="269" type="line"/>
      <point x="420" y="332" type="line"/>
      <point x="411" y="341" type="line"/>
    </contour>
    <component base="T"/>
  </outline>
</glyph>
<glyph name="tbar" format="1">
  <advance width="437"/>
  <unicode hex="0167"/>
  <outline>
    <contour>
      <point x="79" y="255" type="line"/>
      <point x="66" y="191" type="line"/>
      <point x="73" y="183" type="line"/>
      <point x="354" y="183" type="line"/>
      <point x="367" y="246" type="line"/>
      <point x="360" y="255" type="line"/>
    </contour>
    <component base="t"/>
  </outline>
</glyph>
<glyph name="uhorn" format="1">
  <advance width="557"/>
  <unicode hex="01B0"/>
  <outline>
    <contour>
      <point x="526" y="622"/>
      <point x="504" y="612"/>
      <point x="485" y="599" type="curve"/>
      <point x="481" y="589" type="line"/>
      <point x="495" y="577"/>
      <point x="500" y="563"/>
      <point x="500" y="549" type="curve" smooth="yes"/>
      <point x="500" y="519"/>
      <point x="485" y="505"/>
      <point x="447" y="505" type="curve"/>
      <point x="457" y="446" type="line"/>
      <point x="537" y="456"/>
      <point x="596" y="504"/>
      <point x="596" y="562" type="curve" smooth="yes"/>
      <point x="596" y="596"/>
      <point x="573" y="622"/>
      <point x="546" y="622" type="curve" smooth="yes"/>
    </contour>
    <component base="u"/>
    <contour>
      <point x="301" y="505" type="move" name="top"/>
    </contour>
  </outline>
</glyph>
<glyph name="pi" format="1">
  <advance width="663"/>
  <unicode hex="03C0"/>
  <outline>
    <contour>
      <point x="532" y="504" type="line"/>
      <point x="138" y="504" type="line"/>
      <point x="120" y="497" type="line"/>
      <point x="16" y="387" type="line"/>
      <point x="15" y="373" type="line"/>
      <point x="47" y="325" type="line"/>
      <point x="61" y="325" type="line"/>
      <point x="101" y="362"/>
      <point x="133" y="401"/>
      <point x="160" y="401" type="curve" smooth="yes"/>
      <point x="429" y="401" type="line"/>
      <point x="393" y="106" type="line" smooth="yes"/>
      <point x="382" y="20"/>
      <point x="424" y="-7"/>
      <point x="475" y="-7" type="curve" smooth="yes"/>
      <point x="494" y="-7"/>
      <point x="519" y="2"/>
      <point x="548" y="16" type="curve"/>
      <point x="570" y="87" type="line"/>
      <point x="562" y="94" type="line"/>
      <point x="550" y="89"/>
      <point x="538" y="86"/>
      <point x="528" y="86" type="curve" smooth="yes"/>
      <point x="512" y="86"/>
      <point x="507" y="97"/>
      <point x="510" y="124" type="curve" smooth="yes"/>
      <point x="548" y="400" type="line"/>
      <point x="633" y="399" type="line"/>
      <point x="654" y="496" type="line"/>
      <point x="647" y="506" type="line"/>
    </contour>
    <contour>
      <point x="186" y="469" type="line"/>
      <point x="156" y="192" type="line"/>
      <point x="117" y="-90" type="line"/>
      <point x="242" y="-90" type="line"/>
      <point x="275" y="205" type="line"/>
      <point x="309" y="477" type="line"/>
    </contour>
  </outline>
</glyph>
<glyph name="adotbelow" format="1">
  <advance width="517"/>
  <unicode hex="1EA1"/>
  <outline>
    <component base="a"/>
    <component base="dotbelowcomb" xOffset="76"/>
    <contour>
      <point x="292" y="505" type="move" name="top"/>
    </contour>
  </outline>
</glyph>
<glyph name="dagger" format="1">
  <advance width="501"/>
  <unicode hex="2020"/>
  <outline>
    <contour>
      <point x="248" y="585" type="line"/>
      <point x="210" y="281" type="line"/>
      <point x="165" y="-85" type="line"/>
      <point x="172" y="-94" type="line"/>
      <point x="253" y="-89" type="line"/>
      <point x="299" y="289" type="line"/>
      <point x="338" y="584" type="line"/>
      <point x="331" y="591" type="line"/>
    </contour>
    <contour>
      <point x="69" y="411" type="line"/>
      <point x="52" y="334" type="line"/>
      <point x="59" y="324" type="line"/>
      <point x="466" y="324" type="line"/>
      <point x="482" y="402" type="line"/>
      <point x="474" y="411" type="line"/>
    </contour>
  </outline>
</glyph>
<glyph name="fraction" format="1">
  <advance width="103"/>
  <unicode hex="2044"/>
  <outline>
    <contour>
      <point x="-264" y="-45" type="line"/>
      <point x="-260" y="-59" type="line"/>
      <point x="-209" y="-92" type="line"/>
      <point x="348" y="635" type="line"/>
      <point x="342" y="653" type="line"/>
      <point x="294" y="685" type="line"/>
    </contour>
  </outline>
</glyph>
<glyph name="Euro" format="1">
  <advance width="475"/>
  <unicode hex="20AC"/>
  <outline>
    <contour>
      <point x="218" y="509"/>
      <point x="128" y="436"/>
      <point x="92" y="306" type="curve"/>
      <point x="206" y="306" type="line"/>
      <point x="227" y="382"/>
      <point x="272" y="419"/>
      <point x="342" y="419" type="curve" smooth="yes"/>
      <point x="378" y="419"/>
      <point x="418" y="408"/>
      <point x="446" y="389" type="curve"/>
      <point x="455" y="393" type="line"/>
      <point x="485" y="480" type="line"/>
      <point x="449" y="498"/>
      <point x="402" y="509"/>
      <point x="355" y="509" type="curve" smooth="yes"/>
    </contour>
    <contour>
      <point x="76" y="187" type="line"/>
      <point x="78" y="61"/>
      <point x="149" y="-7"/>
      <point x="287" y="-7" type="curve" smooth="yes"/>
      <point x="326" y="-7"/>
      <point x="368" y="1"/>
      <point x="410" y="20" type="curve"/>
      <point x="429" y="106" type="line"/>
      <point x="420" y="113" type="line"/>
      <point x="385" y="94"/>
      <point x="337" y="83"/>
      <point x="302" y="83" type="curve" smooth="yes"/>
      <point x="236" y="83"/>
      <point x="199" y="118"/>
      <point x="193" y="187" type="curve"/>
    </contour>
    <contour>
      <point x="28" y="336" type="line"/>
      <point x="17" y="278" type="line"/>
      <point x="21" y="272" type="line"/>
      <point x="361" y="272" type="line"/>
      <point x="372" y="330" type="line"/>
      <point x="367" y="336" type="line"/>
    </contour>
    <contour>
      <point x="15" y="223" type="line"/>
      <point x="4" y="165" type="line"/>
      <point x="8" y="159" type="line"/>
      <point x="347" y="159" type="line"/>
      <point x="358" y="217" type="line" smooth="yes"/>
      <point x="354" y="223" type="line"/>
    </contour>
  </outline>
</glyph>
<glyph name="estimated" format="1">
  <advance width="793"/>
  <unicode hex="212E"/>
  <outline>
    <contour>
      <point x="215" y="651"/>
      <point x="49" y="503"/>
      <point x="49" y="319" type="curve" smooth="yes"/>
      <point x="49" y="136"/>
      <point x="215" y="-12"/>
      <point x="418" y="-12" type="curve" smooth="yes"/>
      <point x="536" y="-12"/>
      <point x="643" y="39"/>
      <point x="710" y="117" type="curve" smooth="yes"/>
      <point x="656" y="117" type="line" smooth="yes"/>
      <point x="599" y="50"/>
      <point x="514" y="8"/>
      <point x="419" y="8" type="curve" smooth="yes"/>
      <point x="330" y="8"/>
      <point x="249" y="45"/>
      <point x="193" y="105" type="curve" smooth="yes"/>
      <point x="188" y="111"/>
      <point x="184" y="118"/>
      <point x="184" y="126" type="curve" smooth="yes"/>
      <point x="184" y="307" type="line" smooth="yes"/>
      <point x="184" y="310"/>
      <point x="186" y="311"/>
      <point x="189" y="311" type="curve" smooth="yes"/>
      <point x="786" y="311" type="line"/>
      <point x="786" y="319" type="line" smooth="yes"/>
      <point x="786" y="503"/>
      <point x="621" y="651"/>
      <point x="418" y="651" type="curve" smooth="yes"/>
    </contour>
    <contour>
      <point x="506" y="631"/>
      <point x="585" y="595"/>
      <point x="642" y="538" type="curve" smooth="yes"/>
      <point x="648" y="532"/>
      <point x="652" y="525"/>
      <point x="652" y="516" type="curve" smooth="yes"/>
      <point x="652" y="334" type="line" smooth="yes"/>
      <point x="652" y="331"/>
      <point x="650" y="329"/>
      <point x="647" y="329" type="curve" smooth="yes"/>
      <point x="189" y="329" type="line" smooth="yes"/>
      <point x="186" y="329"/>
      <point x="184" y="331"/>
      <point x="184" y="334" type="curve" smooth="yes"/>
      <point x="184" y="512" type="line" smooth="yes"/>
      <point x="184" y="521"/>
      <point x="188" y="529"/>
      <point x="194" y="535" type="curve" smooth="yes"/>
      <point x="251" y="594"/>
      <point x="330" y="631"/>
      <point x="419" y="631" type="curve" smooth="yes"/>
    </contour>
  </outline>
</glyph>
<glyph name="summation" format="1">
  <advance width="513"/>
  <unicode hex="2211"/>
  <outline>
    <contour>
      <point x="416" y="643" type="line"/>
      <point x="170" y="643" type="line"/>
      <point x="83" y="644" type="line"/>
      <point x="71" y="545" type="line"/>
      <point x="242" y="324" type="line"/>
      <point x="13" y="90" type="line"/>
      <point x="2" y="-2" type="line"/>
      <point x="93" y="0" type="line"/>
      <point x="312" y="0" type="line"/>
      <point x="456" y="-1" type="line"/>
      <point x="477" y="96" type="line"/>
      <point x="470" y="107" type="line"/>
      <point x="352" y="100" type="line"/>
      <point x="173" y="100" type="line"/>
      <point x="385" y="314" type="line"/>
      <point x="387" y="334" type="line"/>
      <point x="228" y="543" type="line"/>
      <point x="416" y="543" type="line"/>
      <point x="518" y="537" type="line"/>
      <point x="539" y="634" type="line"/>
      <point x="532" y="645" type="line"/>
    </contour>
  </outline>
</glyph>
<glyph name="minus" format="1">
  <advance width="477"/>
  <unicode hex="2212"/>
  <outline>
    <contour>
      <point x="33" y="305" type="line"/>
      <point x="26" y="226" type="line"/>
      <point x="34" y="217" type="line"/>
      <point x="452" y="217" type="line"/>
      <point x="459" y="296" type="line"/>
      <point x="450" y="305" type="line"/>
    </contour>
  </outline>
</glyph>
<glyph name="radical" format="1">
  <advance width="503"/>
  <unicode hex="221A"/>
  <outline>
    <contour>
      <point x="511" y="710" type="line"/>
      <point x="499" y="702" type="line"/>
      <point x="234" y="114" type="line"/>
      <point x="226" y="114" type="line"/>
      <point x="179" y="458" type="line"/>
      <point x="174" y="464" type="line"/>
      <point x="3" y="464" type="line"/>
      <point x="-11" y="380" type="line"/>
      <point x="-7" y="375" type="line"/>
      <point x="85" y="375" type="line"/>
      <point x="142" y="0" type="line"/>
      <point x="281" y="0" type="line"/>
      <point x="604" y="710" type="line"/>
    </contour>
  </outline>
</glyph>
<glyph name="L.ss01" format="1">
  <advance width="374"/>
  <outline>
    <contour>
      <point x="104" y="502" type="line"/>
      <point x="66" y="157" type="line"/>
      <point x="42" y="4" type="line"/>
      <point x="323" y="4" type="line"/>
      <point x="338" y="103" type="line"/>
      <point x="289" y="103" type="line"/>
      <point x="275" y="103" type="line"/>
      <point x="170" y="103" type="line"/>
      <point x="178" y="169" type="line"/>
      <point x="226" y="502" type="line"/>
    </contour>
    <contour>
      <point x="-121" y="48" type="line"/>
      <point x="-127" y="0" type="line"/>
      <point x="443" y="0" type="line"/>
      <point x="449" y="48" type="line"/>
    </contour>
    <contour>
      <point x="-64" y="505" type="line"/>
      <point x="-70" y="457" type="line"/>
      <point x="501" y="457" type="line"/>
      <point x="507" y="505" type="line"/>
    </contour>
  </outline>
</glyph>
<glyph name="V.ss01" format="1">
  <advance width="502"/>
  <outline>
    <contour>
      <point x="402" y="496" type="line"/>
      <point x="379" y="419" type="line"/>
      <point x="240" y="116" type="line"/>
      <point x="233" y="116" type="line"/>
      <point x="185" y="426" type="line"/>
      <point x="180" y="496" type="line"/>
      <point x="61" y="496" type="line"/>
      <point x="151" y="8" type="line"/>
      <point x="292" y="8" type="line"/>
      <point x="518" y="496" type="line"/>
    </contour>
    <contour>
      <point x="-119" y="48" type="line"/>
      <point x="-125" y="0" type="line"/>
      <point x="572" y="0" type="line"/>
      <point x="578" y="48" type="line"/>
    </contour>
    <contour>
      <point x="-62" y="505" type="line"/>
      <point x="-68" y="457" type="line"/>
      <point x="629" y="457" type="line"/>
      <point x="635" y="505" type="line"/>
    </contour>
  </outline>
</glyph>
<glyph name="a.sups" format="1">
  <advance width="323"/>
  <outline>
    <contour>
      <point x="326" y="650" type="line"/>
      <point x="248" y="632" type="line"/>
      <point x="243" y="567" type="line"/>
      <point x="212" y="325" type="line"/>
      <point x="296" y="331" type="line"/>
      <point x="301" y="404" type="line"/>
      <point x="333" y="645" type="line"/>
      <point x="326" y="650" type="line"/>
    </contour>
    <contour>
      <point x="175" y="474" type="line"/>
      <point x="175" y="474" type="line"/>
    </contour>
    <contour>
      <point x="211" y="646" type="line"/>
      <point x="102" y="619"/>
      <point x="51" y="523"/>
      <point x="51" y="430" type="curve" smooth="yes"/>
      <point x="51" y="376"/>
      <point x="67" y="342"/>
      <point x="125" y="323" type="curve"/>
      <point x="137" y="323" type="line"/>
      <point x="168" y="354"/>
      <point x="194" y="395"/>
      <point x="218" y="441" type="curve"/>
      <point x="228" y="441" type="line"/>
      <point x="250" y="565" type="line"/>
      <point x="203" y="457"/>
      <point x="162" y="400"/>
      <point x="149" y="400" type="curve" smooth="yes"/>
      <point x="140" y="400"/>
      <point x="130" y="417"/>
      <point x="130" y="463" type="curve" smooth="yes"/>
      <point x="130" y="533"/>
      <point x="155" y="584"/>
      <point x="199" y="585" type="curve"/>
      <point x="270" y="571" type="line"/>
      <point x="315" y="631" type="line"/>
      <point x="216" y="646" type="line"/>
      <point x="211" y="646" type="line"/>
    </contour>
    <contour>
      <point x="450" y="10" type="move" name="ogonek"/>
    </contour>
    <contour>
      <point x="271" y="466" type="move" name="top"/>
    </contour>
  </outline>
</glyph>
<glyph name="breveacute" format="1">
  <advance width="390"/>
  <outline>
    <contour>
      <point x="348" y="668" type="line"/>
      <point x="327" y="632"/>
      <point x="289" y="612"/>
      <point x="243" y="612" type="curve" smooth="yes"/>
      <point x="196" y="612"/>
      <point x="161" y="632"/>
      <point x="148" y="668" type="curve"/>
      <point x="129" y="668" type="line"/>
      <point x="94" y="627" type="line"/>
      <point x="111" y="559"/>
      <point x="163" y="522"/>
      <point x="239" y="522" type="curve" smooth="yes"/>
      <point x="308" y="522"/>
      <point x="361" y="559"/>
      <point x="392" y="627" type="curve" smooth="yes"/>
      <point x="367" y="668" type="line"/>
    </contour>
    <contour>
      <point x="285" y="814" type="line"/>
      <point x="255" y="771"/>
      <point x="224" y="730"/>
      <point x="193" y="689" type="curve"/>
      <point x="234" y="657" type="line"/>
      <point x="245" y="659" type="line"/>
      <point x="283" y="694"/>
      <point x="320" y="730"/>
      <point x="356" y="766" type="curve"/>
      <point x="354" y="777" type="line"/>
      <point x="295" y="816" type="line"/>
    </contour>
    <contour>
      <point x="222" y="464" type="move" name="_top"/>
    </contour>
  </outline>
</glyph>
<glyph name="brevehookabove" format="1">
  <advance width="390"/>
  <outline>
    <contour>
      <point x="348" y="669" type="line"/>
      <point x="327" y="633"/>
      <point x="289" y="613"/>
      <point x="243" y="613" type="curve" smooth="yes"/>
      <point x="196" y="613"/>
      <point x="161" y="632"/>
      <point x="148" y="669" type="curve"/>
      <point x="129" y="669" type="line"/>
      <point x="94" y="627" type="line"/>
      <point x="111" y="560"/>
      <point x="163" y="522"/>
      <point x="239" y="522" type="curve" smooth="yes"/>
      <point x="308" y="522"/>
      <point x="361" y="560"/>
      <point x="392" y="627" type="curve" smooth="yes"/>
      <point x="367" y="669" type="line"/>
    </contour>
    <contour>
      <point x="204" y="871"/>
      <point x="166" y="851"/>
      <point x="137" y="820" type="curve"/>
      <point x="159" y="785" type="line"/>
      <point x="179" y="801"/>
      <point x="203" y="810"/>
      <point x="222" y="810" type="curve" smooth="yes"/>
      <point x="238" y="810"/>
      <point x="250" y="803"/>
      <point x="250" y="788" type="curve" smooth="yes"/>
      <point x="250" y="769"/>
      <point x="231" y="742"/>
      <point x="198" y="718" type="curve"/>
      <point x="240" y="652" type="line"/>
      <point x="287" y="680" type="line"/>
      <point x="264" y="718" type="line"/>
      <point x="305" y="753"/>
      <point x="320" y="774"/>
      <point x="320" y="801" type="curve" smooth="yes"/>
      <point x="320" y="842"/>
      <point x="285" y="871"/>
      <point x="241" y="871" type="curve" smooth="yes"/>
    </contour>
    <contour>
      <point x="222" y="464" type="move" name="_top"/>
    </contour>
  </outline>
</glyph>
<glyph name="brevetilde" format="1">
  <advance width="390"/>
  <outline>
    <contour>
      <point x="379" y="840" type="line"/>
      <point x="357" y="814"/>
      <point x="340" y="791"/>
      <point x="322" y="791" type="curve" smooth="yes"/>
      <point x="298" y="791"/>
      <point x="222" y="819"/>
      <point x="179" y="825" type="curve"/>
      <point x="167" y="820" type="line"/>
      <point x="103" y="739" type="line"/>
      <point x="103" y="728" type="line"/>
      <point x="139" y="692" type="line"/>
      <point x="149" y="692" type="line"/>
      <point x="172" y="717"/>
      <point x="188" y="740"/>
      <point x="206" y="740" type="curve" smooth="yes"/>
      <point x="231" y="740"/>
      <point x="307" y="712"/>
      <point x="350" y="706" type="curve"/>
      <point x="361" y="711" type="line"/>
      <point x="425" y="794" type="line"/>
      <point x="425" y="804" type="line"/>
      <point x="390" y="840" type="line"/>
    </contour>
    <contour>
      <point x="337" y="661" type="line"/>
      <point x="316" y="626"/>
      <point x="280" y="607"/>
      <point x="236" y="607" type="curve" smooth="yes"/>
      <point x="191" y="607"/>
      <point x="158" y="626"/>
      <point x="146" y="661" type="curve"/>
      <point x="128" y="661" type="line"/>
      <point x="94" y="621" type="line"/>
      <point x="111" y="557"/>
      <point x="160" y="521"/>
      <point x="232" y="521" type="curve" smooth="yes"/>
      <point x="298" y="521"/>
      <point x="348" y="557"/>
      <point x="378" y="621" type="curve" smooth="yes"/>
      <point x="354" y="661" type="line"/>
    </contour>
    <contour>
      <point x="222" y="464" type="move" name="_top"/>
    </contour>
  </outline>
</glyph>
<glyph name="circumflex.cap" format="1">
  <advance width="390"/>
  <outline>
    <contour>
      <point x="125" y="548" type="line"/>
      <point x="164" y="569"/>
      <point x="205" y="590"/>
      <point x="244" y="612" type="curve"/>
      <point x="277" y="590"/>
      <point x="309" y="569"/>
      <point x="343" y="548" type="curve"/>
      <point x="356" y="548" type="line"/>
      <point x="386" y="600" type="line"/>
      <point x="341" y="633"/>
      <point x="299" y="667"/>
      <point x="262" y="703" type="curve"/>
      <point x="234" y="703" type="line"/>
      <point x="192" y="667"/>
      <point x="145" y="633"/>
      <point x="94" y="600" type="curve"/>
      <point x="112" y="548" type="line"/>
    </contour>
    <contour>
      <point x="220" y="464" type="move" name="_top"/>
    </contour>
  </outline>
</glyph>
<glyph name="circumflexgrave" format="1">
  <advance width="390"/>
  <outline>
    <contour>
      <point x="230" y="683" type="line"/>
      <point x="188" y="647"/>
      <point x="141" y="613"/>
      <point x="90" y="580" type="curve"/>
      <point x="108" y="528" type="line"/>
      <point x="121" y="528" type="line"/>
      <point x="160" y="549"/>
      <point x="201" y="570"/>
      <point x="240" y="592" type="curve"/>
      <point x="273" y="570"/>
      <point x="305" y="549"/>
      <point x="339" y="528" type="curve"/>
      <point x="352" y="528" type="line"/>
      <point x="382" y="580" type="line"/>
      <point x="337" y="613"/>
      <point x="295" y="647"/>
      <point x="258" y="683" type="curve"/>
    </contour>
    <contour>
      <point x="253" y="784" type="line"/>
      <point x="250" y="774" type="line"/>
      <point x="344" y="653" type="line"/>
      <point x="353" y="653" type="line"/>
      <point x="397" y="686" type="line"/>
      <point x="327" y="809" type="line"/>
      <point x="318" y="813" type="line"/>
    </contour>
    <contour>
      <point x="222" y="464" type="move" name="_top"/>
    </contour>
  </outline>
</glyph>
<glyph name="circumflexhookabove" format="1">
  <advance width="390"/>
  <outline>
    <contour>
      <point x="229" y="684" type="line"/>
      <point x="187" y="648"/>
      <point x="140" y="614"/>
      <point x="89" y="581" type="curve"/>
      <point x="107" y="529" type="line"/>
      <point x="120" y="529" type="line"/>
      <point x="159" y="550"/>
      <point x="200" y="571"/>
      <point x="239" y="593" type="curve"/>
      <point x="272" y="571"/>
      <point x="304" y="550"/>
      <point x="338" y="529" type="curve"/>
      <point x="351" y="529" type="line"/>
      <point x="381" y="581" type="line"/>
      <point x="336" y="614"/>
      <point x="294" y="648"/>
      <point x="257" y="684" type="curve"/>
    </contour>
    <contour>
      <point x="301" y="857"/>
      <point x="265" y="839"/>
      <point x="237" y="810" type="curve"/>
      <point x="258" y="776" type="line"/>
      <point x="277" y="791"/>
      <point x="300" y="800"/>
      <point x="318" y="800" type="curve" smooth="yes"/>
      <point x="333" y="800"/>
      <point x="345" y="793"/>
      <point x="345" y="779" type="curve" smooth="yes"/>
      <point x="345" y="761"/>
      <point x="326" y="734"/>
      <point x="295" y="712" type="curve"/>
      <point x="335" y="649" type="line"/>
      <point x="380" y="676" type="line"/>
      <point x="359" y="712" type="line"/>
      <point x="397" y="746"/>
      <point x="411" y="766"/>
      <point x="411" y="790" type="curve" smooth="yes"/>
      <point x="411" y="830"/>
      <point x="378" y="857"/>
      <point x="336" y="857" type="curve" smooth="yes"/>
    </contour>
    <contour>
      <point x="222" y="464" type="move" name="_top"/>
    </contour>
  </outline>
</glyph>
<glyph name="circumflextilde" format="1">
  <advance width="390"/>
  <outline>
    <contour>
      <point x="225" y="684" type="line"/>
      <point x="183" y="649"/>
      <point x="136" y="615"/>
      <point x="85" y="582" type="curve"/>
      <point x="103" y="529" type="line"/>
      <point x="116" y="529" type="line"/>
      <point x="155" y="551"/>
      <point x="196" y="571"/>
      <point x="235" y="593" type="curve"/>
      <point x="268" y="571"/>
      <point x="300" y="551"/>
      <point x="334" y="529" type="curve"/>
      <point x="347" y="529" type="line"/>
      <point x="377" y="582" type="line"/>
      <point x="332" y="615"/>
      <point x="290" y="649"/>
      <point x="253" y="684" type="curve"/>
    </contour>
    <contour>
      <point x="376" y="838" type="line"/>
      <point x="354" y="812"/>
      <point x="337" y="789"/>
      <point x="319" y="789" type="curve" smooth="yes"/>
      <point x="295" y="789"/>
      <point x="219" y="817"/>
      <point x="176" y="823" type="curve"/>
      <point x="164" y="818" type="line"/>
      <point x="100" y="737" type="line"/>
      <point x="100" y="726" type="line"/>
      <point x="136" y="690" type="line"/>
      <point x="146" y="690" type="line"/>
      <point x="169" y="715"/>
      <point x="185" y="738"/>
      <point x="203" y="738" type="curve" smooth="yes"/>
      <point x="228" y="738"/>
      <point x="304" y="710"/>
      <point x="347" y="704" type="curve"/>
      <point x="358" y="709" type="line"/>
      <point x="422" y="792" type="line"/>
      <point x="422" y="802" type="line"/>
      <point x="387" y="838" type="line"/>
    </contour>
    <contour>
      <point x="208" y="464" type="move" name="_top"/>
    </contour>
  </outline>
</glyph>
<glyph name="e.sups" format="1">
  <advance width="277"/>
  <outline>
    <contour>
      <point x="117" y="444" type="line"/>
      <point x="248" y="479"/>
      <point x="301" y="521"/>
      <point x="301" y="576" type="curve" smooth="yes"/>
      <point x="301" y="617"/>
      <point x="272" y="641"/>
      <point x="229" y="649" type="curve"/>
      <point x="221" y="649" type="line"/>
      <point x="119" y="644"/>
      <point x="53" y="565"/>
      <point x="53" y="446" type="curve"/>
      <point x="52" y="375"/>
      <point x="82" y="331"/>
      <point x="160" y="323" type="curve"/>
      <point x="168" y="323" type="line"/>
      <point x="212" y="333"/>
      <point x="252" y="358"/>
      <point x="284" y="402" type="curve"/>
      <point x="257" y="436" type="line"/>
      <point x="246" y="437" type="line"/>
      <point x="225" y="403"/>
      <point x="201" y="386"/>
      <point x="174" y="386" type="curve" smooth="yes"/>
      <point x="145" y="386"/>
      <point x="132" y="407"/>
      <point x="132" y="465" type="curve" smooth="yes"/>
      <point x="132" y="547"/>
      <point x="159" y="595"/>
      <point x="200" y="595" type="curve" smooth="yes"/>
      <point x="217" y="595"/>
      <point x="225" y="586"/>
      <point x="225" y="571" type="curve" smooth="yes"/>
      <point x="225" y="537"/>
      <point x="189" y="512"/>
      <point x="117" y="492" type="curve"/>
    </contour>
    <contour>
      <point x="232" y="0" type="move" name="bottom"/>
    </contour>
    <contour>
      <point x="391" y="10" type="move" name="ogonek"/>
    </contour>
    <contour>
      <point x="248" y="466" type="move" name="top"/>
    </contour>
  </outline>
</glyph>
<glyph name="eight.dnom" format="1">
  <advance width="360"/>
  <outline>
    <contour>
      <point x="112" y="390"/>
      <point x="52" y="344"/>
      <point x="52" y="271" type="curve" smooth="yes"/>
      <point x="52" y="230"/>
      <point x="76" y="205"/>
      <point x="108" y="188" type="curve"/>
      <point x="107" y="185" type="line"/>
      <point x="52" y="165"/>
      <point x="18" y="136"/>
      <point x="18" y="88" type="curve" smooth="yes"/>
      <point x="18" y="32"/>
      <point x="66" y="-6"/>
      <point x="149" y="-6" type="curve" smooth="yes"/>
      <point x="245" y="-6"/>
      <point x="308" y="43"/>
      <point x="308" y="118" type="curve" smooth="yes"/>
      <point x="308" y="162"/>
      <point x="281" y="183"/>
      <point x="245" y="202" type="curve"/>
      <point x="246" y="206" type="line"/>
      <point x="289" y="229"/>
      <point x="320" y="255"/>
      <point x="320" y="301" type="curve" smooth="yes"/>
      <point x="320" y="355"/>
      <point x="274" y="390"/>
      <point x="201" y="390" type="curve" smooth="yes"/>
    </contour>
    <contour>
      <point x="193" y="148"/>
      <point x="224" y="135"/>
      <point x="224" y="108" type="curve" smooth="yes"/>
      <point x="224" y="81"/>
      <point x="200" y="58"/>
      <point x="158" y="58" type="curve" smooth="yes"/>
      <point x="122" y="58"/>
      <point x="104" y="75"/>
      <point x="104" y="101" type="curve" smooth="yes"/>
      <point x="104" y="133"/>
      <point x="128" y="149"/>
      <point x="163" y="160" type="curve"/>
    </contour>
    <contour>
      <point x="221" y="324"/>
      <point x="237" y="310"/>
      <point x="237" y="288" type="curve" smooth="yes"/>
      <point x="237" y="259"/>
      <point x="216" y="243"/>
      <point x="189" y="228" type="curve"/>
      <point x="161" y="240"/>
      <point x="137" y="253"/>
      <point x="137" y="278" type="curve" smooth="yes"/>
      <point x="137" y="306"/>
      <point x="157" y="324"/>
      <point x="192" y="324" type="curve" smooth="yes"/>
    </contour>
  </outline>
</glyph>
<glyph name="eight.tf" format="1">
  <advance width="476"/>
  <outline>
    <contour>
      <point x="224" y="477" type="move"/>
    </contour>
    <contour>
      <point x="157" y="594"/>
      <point x="77" y="524"/>
      <point x="77" y="421" type="curve" smooth="yes"/>
      <point x="77" y="353"/>
      <point x="111" y="319"/>
      <point x="153" y="293" type="curve"/>
      <point x="152" y="287" type="line"/>
      <point x="80" y="256"/>
      <point x="27" y="216"/>
      <point x="27" y="137" type="curve" smooth="yes"/>
      <point x="27" y="49"/>
      <point x="100" y="-9"/>
      <point x="220" y="-9" type="curve" smooth="yes"/>
      <point x="348" y="-9"/>
      <point x="432" y="64"/>
      <point x="432" y="169" type="curve" smooth="yes"/>
      <point x="432" y="243"/>
      <point x="391" y="277"/>
      <point x="341" y="304" type="curve"/>
      <point x="342" y="311" type="line"/>
      <point x="399" y="341"/>
      <point x="446" y="384"/>
      <point x="446" y="457" type="curve" smooth="yes"/>
      <point x="446" y="542"/>
      <point x="381" y="594"/>
      <point x="278" y="594" type="curve" smooth="yes"/>
    </contour>
    <contour>
      <point x="285" y="229"/>
      <point x="325" y="209"/>
      <point x="325" y="161" type="curve" smooth="yes"/>
      <point x="325" y="116"/>
      <point x="285" y="78"/>
      <point x="222" y="78" type="curve" smooth="yes"/>
      <point x="166" y="78"/>
      <point x="136" y="107"/>
      <point x="136" y="155" type="curve" smooth="yes"/>
      <point x="136" y="209"/>
      <point x="177" y="232"/>
      <point x="230" y="252" type="curve"/>
    </contour>
    <contour>
      <point x="317" y="505"/>
      <point x="342" y="482"/>
      <point x="342" y="441" type="curve" smooth="yes"/>
      <point x="342" y="393"/>
      <point x="306" y="366"/>
      <point x="263" y="343" type="curve"/>
      <point x="217" y="363"/>
      <point x="183" y="383"/>
      <point x="183" y="430" type="curve" smooth="yes"/>
      <point x="183" y="474"/>
      <point x="217" y="505"/>
      <point x="271" y="505" type="curve" smooth="yes"/>
    </contour>
  </outline>
</glyph>
<glyph name="four.dnom" format="1">
  <advance width="365"/>
  <outline>
    <contour>
      <point x="206" y="385" type="line"/>
      <point x="11" y="157" type="line"/>
      <point x="4" y="94" type="line"/>
      <point x="9" y="86" type="line"/>
      <point x="74" y="89" type="line"/>
      <point x="236" y="89" type="line"/>
      <point x="316" y="86" type="line"/>
      <point x="329" y="155" type="line"/>
      <point x="324" y="164" type="line"/>
      <point x="101" y="164" type="line"/>
      <point x="197" y="276" type="line"/>
      <point x="203" y="276" type="line"/>
      <point x="186" y="144" type="line"/>
      <point x="165" y="1" type="line"/>
      <point x="170" y="-4" type="line"/>
      <point x="251" y="0" type="line"/>
      <point x="257" y="7" type="line"/>
      <point x="265" y="126" type="line"/>
      <point x="299" y="385" type="line"/>
    </contour>
  </outline>
</glyph>
<glyph name="four.tf" format="1">
  <advance width="475"/>
  <outline>
    <contour>
      <point x="294" y="586" type="line"/>
      <point x="16" y="234" type="line"/>
      <point x="6" y="154" type="line"/>
      <point x="13" y="144" type="line"/>
      <point x="95" y="147" type="line"/>
      <point x="328" y="147" type="line"/>
      <point x="433" y="144" type="line"/>
      <point x="450" y="230" type="line"/>
      <point x="443" y="241" type="line"/>
      <point x="125" y="241" type="line"/>
      <point x="283" y="445" type="line"/>
      <point x="291" y="445" type="line"/>
      <point x="263" y="216" type="line"/>
      <point x="231" y="-0" type="line"/>
      <point x="236" y="-8" type="line"/>
      <point x="333" y="-2" type="line"/>
      <point x="341" y="7" type="line"/>
      <point x="357" y="194" type="line"/>
      <point x="408" y="586" type="line"/>
    </contour>
  </outline>
</glyph>
<glyph name="grave.cap" format="1">
  <advance width="390"/>
  <outline>
    <contour>
      <point x="148" y="707" type="line"/>
      <point x="115" y="630" type="line"/>
      <point x="119" y="618" type="line"/>
      <point x="195" y="588"/>
      <point x="263" y="564"/>
      <point x="333" y="539" type="curve"/>
      <point x="346" y="543" type="line"/>
      <point x="367" y="598" type="line"/>
      <point x="295" y="634"/>
      <point x="229" y="669"/>
      <point x="160" y="710" type="curve"/>
    </contour>
    <contour>
      <point x="222" y="464" type="move" name="_top"/>
    </contour>
  </outline>
</glyph>
<glyph name="m.sups" format="1">
  <advance width="530"/>
  <outline>
    <contour>
      <point x="447" y="646" type="line"/>
      <point x="414" y="617"/>
      <point x="383" y="576"/>
      <point x="349" y="523" type="curve"/>
      <point x="337" y="523" type="line"/>
      <point x="319" y="420" type="line"/>
      <point x="368" y="514"/>
      <point x="409" y="560"/>
      <point x="427" y="560" type="curve" smooth="yes"/>
      <point x="434" y="560"/>
      <point x="442" y="552"/>
      <point x="442" y="536" type="curve"/>
      <point x="440" y="528" type="line"/>
      <point x="408" y="325" type="line"/>
      <point x="496" y="331" type="line"/>
      <point x="499" y="404" type="line"/>
      <point x="527" y="568" type="line"/>
      <point x="527" y="577" type="line"/>
      <point x="528" y="611"/>
      <point x="500" y="638"/>
      <point x="455" y="646" type="curve"/>
    </contour>
    <contour>
      <point x="177" y="645" type="line"/>
      <point x="92" y="640" type="line"/>
      <point x="88" y="569" type="line"/>
      <point x="57" y="325" type="line"/>
      <point x="142" y="331" type="line"/>
      <point x="146" y="404" type="line"/>
      <point x="177" y="645" type="line"/>
    </contour>
    <contour>
      <point x="268" y="646" type="line"/>
      <point x="234" y="617"/>
      <point x="205" y="576"/>
      <point x="170" y="523" type="curve"/>
      <point x="158" y="523" type="line"/>
      <point x="140" y="420" type="line"/>
      <point x="191" y="514"/>
      <point x="230" y="560"/>
      <point x="247" y="560" type="curve" smooth="yes"/>
      <point x="255" y="560"/>
      <point x="262" y="552"/>
      <point x="262" y="536" type="curve"/>
      <point x="261" y="528" type="line"/>
      <point x="228" y="325" type="line"/>
      <point x="316" y="331" type="line"/>
      <point x="320" y="404" type="line"/>
      <point x="348" y="568" type="line"/>
      <point x="348" y="577" type="line"/>
      <point x="349" y="611"/>
      <point x="321" y="638"/>
      <point x="276" y="646" type="curve"/>
    </contour>
    <contour>
      <point x="112" y="4" type="move" name="bottom"/>
    </contour>
    <contour>
      <point x="78" y="191" type="move" name="ogonek"/>
    </contour>
    <contour>
      <point x="66" y="183" type="move" name="top"/>
    </contour>
  </outline>
</glyph>
<glyph name="o.sups" format="1">
  <advance width="309"/>
  <outline>
    <contour>
      <point x="219" y="649" type="line"/>
      <point x="116" y="644"/>
      <point x="51" y="561"/>
      <point x="51" y="440" type="curve" smooth="yes"/>
      <point x="51" y="369"/>
      <point x="84" y="332"/>
      <point x="139" y="324" type="curve"/>
      <point x="147" y="322" type="line"/>
      <point x="252" y="328"/>
      <point x="316" y="409"/>
      <point x="316" y="537" type="curve" smooth="yes"/>
      <point x="316" y="604"/>
      <point x="283" y="639"/>
      <point x="228" y="649" type="curve"/>
      <point x="219" y="649" type="line"/>
    </contour>
    <contour>
      <point x="226" y="586"/>
      <point x="234" y="571"/>
      <point x="234" y="531" type="curve" smooth="yes"/>
      <point x="234" y="436"/>
      <point x="214" y="383"/>
      <point x="164" y="383" type="curve" smooth="yes"/>
      <point x="141" y="383"/>
      <point x="132" y="398"/>
      <point x="132" y="439" type="curve" smooth="yes"/>
      <point x="132" y="532"/>
      <point x="153" y="586"/>
      <point x="205" y="586" type="curve" smooth="yes"/>
    </contour>
  </outline>
</glyph>
<glyph name="one.lf" format="1">
  <advance width="372"/>
  <outline>
    <contour>
      <point x="42" y="527" type="line"/>
      <point x="30" y="423" type="line"/>
      <point x="39" y="416" type="line"/>
      <point x="169" y="446" type="line"/>
      <point x="139" y="194" type="line"/>
      <point x="109" y="0" type="line"/>
      <point x="240" y="0" type="line"/>
      <point x="259" y="208" type="line"/>
      <point x="312" y="580" type="line"/>
      <point x="295" y="594" type="line"/>
    </contour>
  </outline>
</glyph>
<glyph name="ringacute" format="1">
  <advance width="390"/>
  <outline>
    <contour>
      <point x="179" y="702"/>
      <point x="144" y="667"/>
      <point x="144" y="607" type="curve" smooth="yes"/>
      <point x="144" y="546"/>
      <point x="179" y="513"/>
      <point x="236" y="513" type="curve" smooth="yes"/>
      <point x="296" y="513"/>
      <point x="334" y="548"/>
      <point x="334" y="611" type="curve" smooth="yes"/>
      <point x="334" y="667"/>
      <point x="303" y="702"/>
      <point x="241" y="702" type="curve" smooth="yes"/>
    </contour>
    <contour>
      <point x="267" y="646"/>
      <point x="280" y="631"/>
      <point x="280" y="606" type="curve" smooth="yes"/>
      <point x="280" y="580"/>
      <point x="265" y="568"/>
      <point x="239" y="568" type="curve" smooth="yes"/>
      <point x="213" y="568"/>
      <point x="198" y="581"/>
      <point x="198" y="609" type="curve" smooth="yes"/>
      <point x="198" y="633"/>
      <point x="211" y="646"/>
      <point x="238" y="646" type="curve" smooth="yes"/>
    </contour>
    <contour>
      <point x="283" y="828"/>
      <point x="213" y="803"/>
      <point x="137" y="779" type="curve"/>
      <point x="150" y="722" type="line"/>
      <point x="162" y="716" type="line"/>
      <point x="234" y="729"/>
      <point x="305" y="743"/>
      <point x="385" y="761" type="curve"/>
      <point x="390" y="772" type="line"/>
      <point x="370" y="853" type="line"/>
      <point x="358" y="858" type="line"/>
    </contour>
    <contour>
      <point x="222" y="464" type="move" name="_top"/>
    </contour>
  </outline>
</glyph>
<glyph name="seven.lf" format="1">
  <advance width="426"/>
  <outline>
    <contour>
      <point x="45" y="480" type="line"/>
      <point x="50" y="469" type="line"/>
      <point x="142" y="479" type="line"/>
      <point x="306" y="479" type="line"/>
      <point x="43" y="36" type="line"/>
      <point x="48" y="15" type="line"/>
      <point x="150" y="-15" type="line"/>
      <point x="223" y="132" type="line"/>
      <point x="433" y="493" type="line"/>
      <point x="444" y="588" type="line"/>
      <point x="395" y="586" type="line"/>
      <point x="176" y="586" type="line"/>
      <point x="66" y="590" type="line"/>
    </contour>
  </outline>
</glyph>
<glyph name="tilde.i" format="1">
  <advance width="390"/>
  <outline>
    <contour>
      <point x="346" y="696" type="line"/>
      <point x="326" y="670"/>
      <point x="311" y="646"/>
      <point x="291" y="646" type="curve" smooth="yes"/>
      <point x="270" y="646"/>
      <point x="204" y="675"/>
      <point x="163" y="681" type="curve"/>
      <point x="151" y="676" type="line"/>
      <point x="89" y="589" type="line"/>
      <point x="89" y="578" type="line"/>
      <point x="127" y="540" type="line"/>
      <point x="138" y="540" type="line"/>
      <point x="159" y="566"/>
      <point x="173" y="590"/>
      <point x="193" y="590" type="curve" smooth="yes"/>
      <point x="214" y="590"/>
      <point x="281" y="561"/>
      <point x="321" y="555" type="curve"/>
      <point x="333" y="560" type="line"/>
      <point x="395" y="647" type="line"/>
      <point x="395" y="658" type="line"/>
      <point x="357" y="696" type="line"/>
    </contour>
    <contour>
      <point x="223" y="464" type="move" name="_top"/>
    </contour>
  </outline>
</glyph>
<glyph name="zero.dnom" format="1">
  <advance width="378"/>
  <outline>
    <contour>
      <point x="92" y="390"/>
      <point x="24" y="298"/>
      <point x="24" y="149" type="curve" smooth="yes"/>
      <point x="24" y="50"/>
      <point x="70" y="-6"/>
      <point x="154" y="-6" type="curve" smooth="yes"/>
      <point x="275" y="-6"/>
      <point x="343" y="85"/>
      <point x="343" y="235" type="curve" smooth="yes"/>
      <point x="343" y="334"/>
      <point x="297" y="390"/>
      <point x="213" y="390" type="curve" smooth="yes"/>
    </contour>
    <contour>
      <point x="239" y="299"/>
      <point x="260" y="270"/>
      <point x="260" y="214" type="curve" smooth="yes"/>
      <point x="260" y="131"/>
      <point x="236" y="79"/>
      <point x="169" y="79" type="curve" smooth="yes"/>
      <point x="126" y="79"/>
      <point x="106" y="107"/>
      <point x="106" y="164" type="curve" smooth="yes"/>
      <point x="106" y="255"/>
      <point x="137" y="299"/>
      <point x="195" y="299" type="curve" smooth="yes"/>
    </contour>
  </outline>
</glyph>
